<svg width="312" height="310" viewBox="0 0 312 310" fill="none" xmlns="http://www.w3.org/2000/svg">
<g clip-path="url(#clip0_53_2169)">
<path d="M110.5 217.3L54.0001 249.7C53.8001 252.6 54.0001 255.5 55.2001 257.6C57.7001 262.1 65.9001 265.2 65.9001 265.2L89.9001 277.1L141.4 247.4L144.7 249.3V245.5L116.5 229.2C112.9 227.2 110.2 222.5 110.5 217.3Z" fill="#F4ECE4"/>
<path d="M111.5 213.1C114.4 205.8 122.8 182.4 122.9 182.2L119.8 181.1C119.8 181.2 117.5 187.4 115 194.3C104.5 200.6 61.8 225.3 61.8 225.3C61.8 225.3 57.2 236.7 55.8 241C55.1 243.3 54.3 246.6 54 249.8L110.5 217.3C110.6 215.9 110.9 214.5 111.5 213.1Z" fill="#E6DBCC"/>
<path d="M89.9 277.2L61.7 260.9C57.1 258.3 54 251.5 56.7 244.7C59.6 237.4 68 214 68.1 213.8L65 212.7C64.9 212.9 56.4 236.3 53.6 243.5C50.3 252 54.2 260.5 60 263.8L89.9 281V277.2Z" fill="#D3C6B6"/>
<path d="M144.7 245.6L89.9 277.2V281L144.7 249.5V245.6Z" fill="#E6DBCC"/>
<path d="M4.5 271.5V125.4L201.8 11.4V157.6L4.5 271.5Z" fill="#E6DBCC"/>
<path d="M200.5 156.5L5.80005 268.9V126.4L200.5 14V156.5Z" fill="#F4ECE4"/>
<path d="M197.8 140.5L8 250.1V128.5L197.8 19V140.5Z" fill="#FB989B"/>
<path d="M101.6 209.4C100.1 209.4 98.5 208.2 98.5 205.6C98.5 203.1 100 200.2 101.9 199.1L115.1 191.5C115.7 191.2 116.3 191 116.9 191C118.4 191 120 192.2 120 194.8C120 197.3 118.5 200.1 116.6 201.3L103.4 208.9C102.8 209.2 102.2 209.4 101.6 209.4Z" fill="white"/>
<path d="M102.7 207.7L115.9 200.1C117.4 199.2 118.7 196.9 118.7 194.8C118.7 192.8 117.5 191.8 115.9 192.7L102.7 200.3C101.2 201.2 99.9 203.5 99.9 205.6C99.9 207.6 101.1 208.5 102.7 207.7Z" fill="#D3C6B6"/>
<path d="M4.5 125.4L0 122.8V268.9L4.5 271.5V125.4Z" fill="#D3C6B6"/>
<path d="M201.8 11.4L197.4 8.9L0 122.8L4.5 125.4L201.8 11.4Z" fill="#F4ECE4"/>
<path d="M48.4 105.2C48.4 105.2 31.6 144.1 28.6 165.2C26.4 181.2 45.7 185.7 52.3 190.9C52.5 201 52.3 224.4 52.3 224.4L149.3 168C149.3 168 146 127.1 142.3 116.4C139.2 107.6 127.9 80 125.9 78.1C123.9 76.1 103.6 73.2 103.6 73.2L48.4 105.2Z" fill="#FB7377"/>
<path d="M109.3 72.8C109.3 72.8 117.4 68.7 128.4 72.7C139.4 76.6 152.9 89.9 152.9 89.9C152.9 89.9 164.6 63.4 170 55C177.2 51.3 190 57.9 190.7 67.8C187.8 80.6 176.5 101.5 171.6 110.9C170.1 113.8 164.4 119.4 160.6 121.2C154.1 124.3 147.9 122 139.8 118.8C127.1 113.8 115.8 104.6 115.8 104.6L109.3 72.8Z" fill="#D3C6B6"/>
<path d="M62.5 100.9C71 83.9 96.7 71.7 115.1 74.4C123.9 81.4 128 86.1 131.2 94.6C134.1 102.2 136.8 161.3 139.6 174.1C121.8 185 74.8 211.5 62.8 218.5C64.1 204.7 61.6 191.1 61.6 172.9C61.7 140.6 59.4 107.1 62.5 100.9Z" fill="#E6DBCC"/>
<path d="M112.1 79.3C108.2 75 109.8 63.9 109.8 63.9C109.8 63.9 88.1 49.4 88.1 63C88.1 75.9 87.3 78.8 85.6 82.2C92.4 87.9 101 93.7 109.6 96.2C109.7 96 112.2 84.2 112.1 79.3Z" fill="#F9B19D"/>
<path d="M91.0001 35.1C97.4001 28 114.4 25.1 120.5 35.5C125.1 43.4 125.3 57.3 124 63.8C122.5 71.7 120.1 79.5 114.1 81C109.9 82.1 101.9 81.5 96.7001 77.2C84.5001 67.2 79.9001 47.4 91.0001 35.1Z" fill="#FFC8B5"/>
<path d="M128.1 146.3C126.1 129 122.9 102 122.9 102C122.9 102 115.2 98.3 106.1 93.6C97 88.9 83.7 81.5 83.7 81.5L80.2 83C80.2 83 84.4 85.6 92 89.7C99.6 93.7 119.9 103.4 119.9 103.4C119.9 103.4 123.1 128.4 124.1 138.2C125.1 148 126.7 181.9 126.7 181.9L130 179.7C130.1 179.6 129.7 160 128.1 146.3Z" fill="#D3C6B6"/>
<path d="M72.4 89.9C58.1 97.2 50.2 118.3 43.1 138.9C36 159.6 32.9 168.2 35.6 171.7C38.4 175.2 65.6 189.6 80.2 194.3C94.8 199 98.7 175.3 88.6 169.6C82.9 166.3 64 158.9 64 158.9C64 158.9 82.7 143.9 84.5 129C86.8 109.3 82 89.2 72.4 89.9Z" fill="#D3C6B6"/>
<path d="M96.6 48.7C96.6 48.7 97.3 52.3 94.3 57.9C90.6 64.8 88 67.8 88 67.8C88 67.8 83.4 58.2 84.5 50.4C85.6 42.6 96.6 48.7 96.6 48.7Z" fill="#101111"/>
<path d="M116.6 66.6C113.5 68 113.8 71.4 110.4 74.1C108.3 75.8 104.8 74.1 104.8 74.1C104.8 74.1 106.2 77.5 110.8 77.1C116.4 76.7 118 71.7 118 71.7C118 71.7 120 74 123.2 71.7C126.4 69.4 126.5 67.2 126.5 67.2C126.5 67.2 124 68.7 121.2 67.9C119.4 67.2 119.2 65.4 116.6 66.6Z" fill="#101111"/>
<path d="M83 53.6C83 53.6 87.8 55.8 103.1 55C113 54.5 124.4 48.3 124.4 48.3C124.4 48.3 122.1 22.9 117.8 16.8C114.8 12.5 87.8 16.6 80.3 21.5C76.5 30 78.9 45.6 83 53.6Z" fill="#E6DBCC"/>
<path d="M119.2 111C119.2 112.7 118.2 114.1 116.9 114.1C115.6 114.1 114.6 112.7 114.6 111C114.6 109.3 115.6 107.9 116.9 107.9C118.2 107.8 119.2 109.2 119.2 111Z" fill="#C1B09D"/>
<path d="M121.4 129.7C121.4 131.4 120.4 132.8 119.1 132.8C117.8 132.8 116.8 131.4 116.8 129.7C116.8 128 117.8 126.6 119.1 126.6C120.3 126.6 121.4 128 121.4 129.7Z" fill="#C1B09D"/>
<path d="M123.3 146.7C123.3 148.4 122.3 149.8 121 149.8C119.7 149.8 118.7 148.4 118.7 146.7C118.7 145 119.7 143.6 121 143.6C122.2 143.5 123.3 144.9 123.3 146.7Z" fill="#C1B09D"/>
<path d="M79.6 43.3C79.6 43.3 90.9 46.4 97.1 43.8C103.3 41.1 106.4 37.1 106.4 37.1C106.4 37.1 109.7 39.2 116 39.4C119 39.5 123.2 38.1 123.2 38.1C123.2 38.1 123.2 26.7 120.3 23.1C117.4 19.5 78.4 28.2 78.4 28.2C78.4 28.2 77.6 37.6 79.6 43.3Z" fill="#D3C6B6"/>
<path d="M125.7 8C121.9 5.2 117.5 5 113.2 6.1C112.4 3 109.8 0.599999 105.6 0.199999C100 -0.400001 92.1 0.399999 88.2 5C83.7 3.5 78.6 3.6 75.4 7.6C73.6 9.8 73.1 13.3 74 16.1C67.5 17.4 61.3 21.3 63.7 28.4C65.8 34.4 73.5 36.2 79.5 34.3C82.1 37.5 87.1 39.4 90.9 39.2C96.1 38.9 101 34.8 102.5 29.8C111.6 33.8 125.4 30.4 129.2 21.3C131.2 16.5 129.9 11.1 125.7 8Z" fill="#E6DBCC"/>
<path d="M95.9 60.2C95.9 60.2 91.3 54.9 89.1 60.2C87.1 64.8 93.7 69 93.7 69L95.9 60.2Z" fill="#FFC8B5"/>
<path d="M84.4 53.8C84.4 53.8 81.5 52.7 78.6 55C75.7 57.3 80.4 60.6 80.4 60.6C80.4 60.6 78.6 64.3 80.4 67.1C82.2 69.9 86.2 70.3 88.1 67.8C89.9 65.3 84.4 53.8 84.4 53.8Z" fill="#101111"/>
<path d="M84.9 195.2C82.1 195.7 80.3 187.8 83.3 179.6C86.3 171.4 89.3 169.5 92.4 171.1C95.4 172.7 96.9 181.6 93.7 187.5C90.4 193.4 87.7 194.6 84.9 195.2Z" fill="#C1B09D"/>
<path d="M84.5 175.5C84.5 175.5 82 180.5 82 185.1C85 186.3 92.2 191.1 101.4 193.7C107.9 195.5 115.2 194.4 118.8 193.5C127.6 191.3 131.5 185.5 131.5 185.5L84.5 175.5Z" fill="#FFC8B5"/>
<path d="M154.7 168.6C153.4 157.5 138 148.6 119.1 148.6C100.2 148.6 84.8 157.4 83.5 168.6H83.4V170.4C83.6 182.1 99.5 191.6 119.1 191.6C138.7 191.6 154.6 182.1 154.8 170.4V168.6H154.7Z" fill="#D3C6B6"/>
<path d="M119.1 147.2C99.4 147.2 83.4 156.8 83.4 168.6C83.4 180.4 99.4 190 119.1 190C138.8 190 154.8 180.4 154.8 168.6C154.8 156.8 138.8 147.2 119.1 147.2Z" fill="#F4ECE4"/>
<path d="M119.2 149.8C101.9 149.8 87.8 158.2 87.8 168.6C87.8 179 101.8 187.4 119.2 187.4C136.5 187.4 150.6 179 150.6 168.6C150.6 158.3 136.6 149.8 119.2 149.8Z" fill="#E6DBCC"/>
<path d="M119.2 152.8C103.7 152.8 91.2001 160.3 91.2001 169.6C91.2001 178.9 103.8 186.4 119.2 186.4C134.7 186.4 147.2 178.9 147.2 169.6C147.3 160.3 134.7 152.8 119.2 152.8Z" fill="#D3C6B6"/>
<path d="M147.3 170.1C146.2 168.7 144.4 168.8 142.8 168.5C139.9 167.9 137 167.6 134.1 167.4C127.7 166.9 120.9 166.6 114.5 167.2C109.5 167.7 105 169.8 101.4 173.4C99.3 173.6 93 174.7 95.4 177.1C95.8 177.5 96.6 177.3 96.9 177.6C97.9 178.4 96.5 179 96.7 179.8C97 181 99.3 180.5 100.1 180.4C101.6 180.2 103.2 179.5 104 181.4C104.3 182.1 104.6 182.7 105.1 183.2C106.5 184.6 108.6 185.1 110.4 185.5C111.6 185.7 113 185.9 114 185C114.4 184.5 114.6 183.9 114.7 183.3C114.8 182.9 114.8 182.1 115.1 181.8C116 180.7 117 181.5 118 181.6C120 181.7 121.3 179.3 123.3 179.7C124.3 179.9 125 180.7 126.1 180.7C127.1 180.7 128.1 180.1 129 179.7C131.5 178.6 133.8 180.3 136.2 179.4C137 179.1 137.7 178.5 138.5 178C140.2 177 141.7 177.1 143.5 176.8C146.3 176.2 149.4 172.8 147.3 170.1Z" fill="#E29C49"/>
<path d="M112 161C111.4 159.9 110.5 158.8 109.5 158C109 157.6 107.8 156.7 107.1 156.8C107.4 156.5 108.4 156.2 109 155.1C108.6 154.7 107.8 154.2 107.4 154.3C107.7 153.8 109.8 151.9 109.2 150.8C107.4 150.4 105.6 152.1 104.9 152.6C104.9 152 104.5 151.3 104.1 150.9C103.5 151.6 102.8 152.5 102.5 153.4C102 151.9 100.4 150.8 98.9 150.5C98.4 151.3 98.4 151.9 98.7 152.2C97.5 151.6 96.2 150.4 94.8 150.6C94.7 151.9 96.5 155.1 98.3 155.5C100.2 160.3 105.2 163.3 110.3 163.2C110.3 162.5 110.1 161.6 109.7 161.1C110.3 161.3 111.5 161.2 112 161Z" fill="#89AD33"/>
<path d="M98.5001 153.7C97.5001 153 96.5001 152.2 95.7001 151.6C96.1001 152.6 97.0001 153.2 97.8001 153.8C98.2001 154.1 98.6001 154.4 99.0001 154.8C99.4001 155.1 99.6001 155.6 100 155.8C100.1 155.9 100.3 155.7 100.2 155.6C100.1 154.9 99.1001 154.2 98.5001 153.7Z" fill="#7A9B1F"/>
<path d="M100.7 153.7C100.5 152.9 100.2 152.2 99.5 151.7C99.9 152.8 100.5 155.6 100.8 156.3C100.9 156.5 101.1 156.5 101.1 156.3C101.4 155.5 101 154.5 100.7 153.7Z" fill="#7A9B1F"/>
<path d="M107.7 152.3C106.3 152.9 104.6 154.1 103.5 155.5C103.5 155.4 103.8 153.4 103.6 152.8C103.2 153.4 102.6 156.4 102.5 157.1C102.5 157.2 102.5 157.3 102.6 157.4C102.7 157.5 102.9 157.5 103 157.4C103.1 157.2 103.3 157 103.4 156.9C103.9 156.6 104.4 156.3 104.9 156.1C105.6 155.8 106.7 155.7 107.5 155.3C106.7 155.2 105.2 155.2 104.3 155.7C104.6 155.3 104.9 155 105.2 154.6C106 153.8 107.3 153 107.7 152.3Z" fill="#7A9B1F"/>
<path d="M109 159.6C108.6 159 105.5 158.2 104.9 158.6C104.9 158.6 104.9 158.6 104.9 158.7C105.6 159 106.3 159.2 107 159.5C107.5 159.6 108.7 159.7 109 159.6Z" fill="#7A9B1F"/>
<path d="M107.3 160.4C106.7 160 106 159.6 105.3 159.5C105.2 159.5 105.2 159.6 105.3 159.6C105.9 160 106.5 160.4 107.1 160.9C107.6 161.3 108 161.8 108.8 162C108.5 161.3 107.8 160.8 107.3 160.4Z" fill="#7A9B1F"/>
<path d="M107.1 160.6C106.8 159.7 106.4 158.9 105.8 158.1C106.1 159.5 105.8 160.9 105.2 162.2C104.2 164.2 102.3 165 100.4 165.8C98.9 166.4 97.7 167.1 96.3 167.8C95.7 168.1 95 168.4 94.3 168.1C93.6 167.8 93.6 167.3 93.4 166.6C93.2 165.8 93.2 165.1 92.7 164.3C92.4 163.8 92 163.5 91.8 163C91.2 162 91 160.9 91 159.9C90.9 160.5 90.8 161.1 90.8 161.7C90.9 162.9 91.4 163.9 91.9 164.9C92.7 166.7 91.8 168.3 92.3 170.1C93 172.6 95 171.7 96.6 170.8C99.1 169.3 102.5 169.9 104.7 167.8C106.6 166.1 107.9 163 107.1 160.6Z" fill="#FB7377"/>
<path d="M91.8 163.1C92.1 163.6 92.5 164 92.7 164.4C93.1 165.1 93.1 165.9 93.4 166.7C93.6 167.3 93.7 167.9 94.3 168.2C95 168.5 95.7 168.3 96.3 167.9C97.7 167.2 98.9 166.4 100.4 165.9C102.4 165.1 104.2 164.3 105.2 162.3C105.8 161.1 106.1 159.6 105.8 158.2C104.1 155.9 101.4 154.4 98.7 154.4C96.5 154.4 94.5 155.1 93 156.6C92.1 157.5 91.3 158.6 91 160C90.9 161 91.2 162 91.8 163.1Z" fill="#F45C4D"/>
<path d="M98.6001 155.2C98.4001 155.4 98.2001 155.7 98.2001 156C98.2001 156.2 98.4001 156.3 98.5001 156.2C98.8001 156 98.9001 155.7 98.9001 155.4C99.0001 155.1 98.7001 155 98.6001 155.2Z" fill="#FFD795"/>
<path d="M100.7 155.3C100.7 155.2 100.6 155.2 100.6 155.3C100.4 155.5 100.4 155.7 100.3 155.9C100.2 156.2 100.1 156.3 100.1 156.6C100.1 156.7 100.3 156.8 100.4 156.7C100.7 156.4 100.8 155.7 100.7 155.3Z" fill="#FFD795"/>
<path d="M97.5 157.1C97 157 96.5 157.7 96.6 158.2C96.7 158.4 96.9 158.4 97.1 158.3C97.2 158.1 97.2 157.9 97.4 157.7C97.5 157.5 97.6 157.4 97.7 157.3C97.6 157.2 97.6 157.1 97.5 157.1Z" fill="#FFD795"/>
<path d="M100.4 158C100.3 157.9 100.2 157.9 100.1 158C100 158.2 100 158.4 99.9001 158.6C99.8001 158.8 99.7001 159 99.7001 159.2C99.7001 159.4 99.9001 159.4 100 159.4C100.5 159.2 100.7 158.4 100.4 158Z" fill="#FFD795"/>
<path d="M102.2 159.7L102.1 159.6C101.9 159.7 101.7 159.9 101.6 160C101.4 160.2 101.2 160.3 101 160.6C101 160.7 101 160.8 101.1 160.9C101.5 161 101.7 160.8 101.9 160.5C102.1 160.3 102.3 160 102.2 159.7Z" fill="#FFD795"/>
<path d="M104.4 160.2C104.3 160 104 160 104 160.2C103.9 160.5 103.8 160.8 103.7 161.2C103.7 161.3 103.8 161.5 103.9 161.4C104.4 161.2 104.5 160.7 104.4 160.2Z" fill="#FFD795"/>
<path d="M105 163.5C105 163.4 104.9 163.4 104.8 163.5C104.6 163.7 104.6 163.9 104.5 164.1C104.4 164.3 104.3 164.5 104.3 164.7C104.3 164.9 104.5 165 104.6 164.9C105.1 164.6 105.3 163.9 105 163.5Z" fill="#FFD795"/>
<path d="M105.4 165.6C105.2 165.7 105 165.8 104.8 165.9C104.6 166 104.3 166.1 104.2 166.3C104.1 166.4 104.1 166.5 104.3 166.6C104.8 166.8 105.5 166.2 105.6 165.7C105.6 165.6 105.5 165.6 105.4 165.6Z" fill="#FFD795"/>
<path d="M106.2 161.5C106.1 161.4 106 161.5 106 161.6C106 161.8 106.1 161.9 106.1 162.1C106.1 162.3 106 162.4 106 162.6C106 162.8 106.3 162.9 106.4 162.8C106.7 162.6 106.6 161.8 106.2 161.5Z" fill="#FFD795"/>
<path d="M105 158.4C104.9 158.4 104.8 158.4 104.8 158.5C104.7 158.8 104.8 159.4 105 159.6C105.1 159.7 105.2 159.7 105.3 159.6C105.6 159.1 105.4 158.6 105 158.4Z" fill="#FFD795"/>
<path d="M103.8 157.7C103.5 157.9 103.1 158.3 103.1 158.7C103.1 158.9 103.3 159.1 103.5 159C103.8 158.8 104.1 158.3 104.1 157.9C104 157.7 103.9 157.7 103.8 157.7Z" fill="#FFD795"/>
<path d="M102.3 156.3C101.9 156.6 101.7 157 101.6 157.5C101.6 157.6 101.7 157.7 101.8 157.6C102.2 157.4 102.5 157 102.5 156.5C102.5 156.4 102.4 156.2 102.3 156.3Z" fill="#FFD795"/>
<path d="M94.4 155.9C93.9 155.9 93.5 156.5 93.5 156.9C93.5 157.1 93.7 157.2 93.9 157C94.1 156.9 94.2 156.7 94.3 156.5C94.4 156.3 94.5 156.2 94.6 156C94.5 156 94.5 155.9 94.4 155.9Z" fill="#FFD795"/>
<path d="M96.5 155.2C96.2 155.4 96 155.6 95.9 156C95.9 156.2 96 156.3 96.2 156.2C96.5 156 96.7 155.7 96.8 155.4C96.7 155.2 96.6 155.1 96.5 155.2Z" fill="#FFD795"/>
<path d="M103.1 165.3C103.1 165.2 102.9 165.2 102.9 165.2C102.7 165.5 102.4 165.7 102.1 165.9C102.1 165.9 102 166 102.1 166.1C102.5 166.5 103.2 165.9 103.1 165.3Z" fill="#FFD795"/>
<path d="M103.6 162.3C103.4 162.3 103.2 162.5 103 162.7C102.8 162.8 102.6 162.9 102.5 163.1C102.4 163.3 102.6 163.5 102.8 163.4C103.2 163.3 103.7 162.7 103.7 162.4C103.7 162.3 103.7 162.3 103.6 162.3Z" fill="#FFD795"/>
<path d="M101.1 162.8C100.9 163.1 100.6 163.4 100.4 163.7C100.4 163.8 100.5 163.9 100.6 163.9C101.1 163.9 101.4 163.5 101.7 163.1C101.8 162.8 101.3 162.5 101.1 162.8Z" fill="#FFD795"/>
<path d="M99.5 161.3C99.4 161 99 161.1 99 161.4C99 161.6 98.8 161.8 98.8 162C98.7 162.2 98.9 162.3 99.1 162.3C99.5 162.1 99.6 161.7 99.5 161.3Z" fill="#FFD795"/>
<path d="M97.4 160.8C97.4 160.7 97.3 160.7 97.2 160.7C96.9 160.9 96.8 161.3 96.9 161.6C97 161.8 97.2001 161.9 97.3001 161.7C97.5001 161.4 97.5 161.1 97.4 160.8Z" fill="#FFD795"/>
<path d="M95.3 160.1C94.9 160.3 94.7 160.9 94.9 161.3C95 161.5 95.3 161.5 95.4 161.3C95.5 161 95.6 160.7 95.6 160.4C95.7 160.2 95.5 160 95.3 160.1Z" fill="#FFD795"/>
<path d="M93.8 161.7C93.7 161.5 93.7 161.4 93.7 161.2C93.7 161.1 93.6 161.1 93.5 161.1C93.2 161.4 93.2 162.1 93.7 162.3C93.8 162.4 94 162.3 94 162.1C93.9 161.9 93.8 161.8 93.8 161.7Z" fill="#FFD795"/>
<path d="M92.2 161.7C92.1 161.5 91.7 161.4 91.7 161.7C91.6 162.1 91.8 162.7 92.2 162.8C92.4 162.8 92.5 162.7 92.5 162.5C92.5 162.3 92.3 162 92.2 161.7Z" fill="#FFD795"/>
<path d="M92.2 158.8C92.2 158.6 92.2 158.4 92.1 158.2C92.1 158.1 92 158.1 91.9 158.1C91.5 158.3 91.5 159.1 91.8 159.3C91.9 159.4 92 159.4 92.1 159.3C92.2 159.2 92.2 159 92.2 158.8Z" fill="#FFD795"/>
<path d="M93.6 158.8C93.6 158.7 93.5 158.7 93.5 158.7C93.1 158.9 93 159.5 93.3 159.8C93.4 159.9 93.7 159.9 93.7 159.7C93.7 159.4 93.6 159.1 93.6 158.8Z" fill="#FFD795"/>
<path d="M95.2 157.3C95.1 157.2 95 157.2 94.9 157.3C94.7 157.5 94.6 158 94.7 158.3C94.8 158.5 95 158.5 95.2 158.4C95.4 158 95.4 157.6 95.2 157.3Z" fill="#FFD795"/>
<path d="M98.1 158.6C98.1 158.5 98 158.6 97.9 158.6C97.7 158.8 97.6 159.1 97.5 159.4C97.5 159.6 97.8 159.7 97.9 159.6C98.2 159.3 98.3 158.8 98.1 158.6Z" fill="#FFD795"/>
<path d="M95.3 167.9C95.3 167.8 95.1 167.8 95.1 167.9C94.9 168.1 94.9 168.3 94.8 168.5C94.7 168.7 94.6 168.9 94.6 169.1C94.6 169.2 94.7 169.3 94.8 169.3C95.2 169.1 95.5 168.4 95.3 167.9Z" fill="#FFD795"/>
<path d="M97 169.2C96.7 169.2 96.4 169.4 96.1 169.4C96 169.4 95.8 169.4 95.8 169.6C95.8 169.9 96.3 170 96.5 169.9C96.8 169.9 97.1 169.7 97.2 169.4C97.2 169.4 97.1 169.2 97 169.2Z" fill="#FFD795"/>
<path d="M98.5 167.2C98.5 167.1 98.4 167 98.3 167.1C98.1 167.2 98 167.4 97.8 167.5C97.6 167.7 97.4 167.8 97.2 168C97.1 168.1 97.1 168.2 97.3 168.3C97.8 168.4 98.8 167.8 98.5 167.2Z" fill="#FFD795"/>
<path d="M96.7 165.7C96.2 165.8 96 166.6 96 167C96 167.2 96.3 167.2 96.4 167C96.6 166.8 96.6 166.6 96.7 166.3C96.8 166.1 96.9 166 96.9 165.8C96.8 165.7 96.7 165.7 96.7 165.7Z" fill="#FFD795"/>
<path d="M94.4 165.6C94.4 165.4 94.2 165.5 94.1 165.6C93.9 165.9 93.8 166.5 94 166.8C94.1 166.9 94.3 167 94.4 166.8C94.6 166.4 94.5 166 94.4 165.6Z" fill="#FFD795"/>
<path d="M92.9 164.3C92.9 164.1 92.5 164.1 92.4 164.3C92.3 164.7 92.3 165.2 92.7 165.5C92.8 165.6 93 165.5 93 165.4C93.1 165 93 164.7 92.9 164.3Z" fill="#FFD795"/>
<path d="M94.8 163.1C94.8 163 94.7 163 94.7 163.1C94.5 163.4 94.4 163.8 94.5 164.2C94.6 164.4 94.8 164.4 94.9 164.2C95 163.8 94.9 163.4 94.8 163.1Z" fill="#FFD795"/>
<path d="M97.2 163.2C97.2 163.1 97 163 96.9 163.1C96.7 163.3 96.5 163.6 96.5 163.9C96.5 164.1 96.7 164.3 96.9 164.1C97.2 163.9 97.3 163.5 97.2 163.2Z" fill="#FFD795"/>
<path d="M99.0001 164.1C98.8001 164.2 98.7001 164.4 98.5001 164.5C98.3001 164.7 98.2001 164.8 98.1001 165C98.0001 165.2 98.2001 165.4 98.4001 165.3C98.9001 165.2 99.2001 164.6 99.3001 164.1C99.2001 164.1 99.0001 164 99.0001 164.1Z" fill="#FFD795"/>
<path d="M100.9 165.4L100.8 165.3C100.4 165.3 100.1 165.7 99.9001 166C99.8001 166.1 99.9001 166.3 100.1 166.3C100.5 166.3 101.1 165.8 100.9 165.4Z" fill="#FFD795"/>
<path d="M101.9 167.5C101.6 167.4 101 167.6 100.8 167.8C100.7 167.8 100.7 167.9 100.8 167.9C101.1 168.2 101.8 168.2 102.1 167.9C102.1 167.8 102 167.6 101.9 167.5Z" fill="#FFD795"/>
<path d="M100.3 168.8C100.1 168.9 99.8 168.9 99.6 169C99.4 169.1 99.2 169.1 99 169.2V169.3C99.4 169.8 100.2 169.5 100.6 169.1C100.7 168.9 100.5 168.8 100.3 168.8Z" fill="#FFD795"/>
<path d="M104 167.4C103.8 167.4 103.6 167.5 103.4 167.5C103.3 167.5 103.2 167.5 103.1 167.6C103 168.2 104.2 168.2 104.2 167.5C104.2 167.5 104.1 167.4 104 167.4Z" fill="#FFD795"/>
<path d="M93.4 168C93.4 167.8 93.1 167.7 93 167.9C92.8 168.3 92.8 168.9 93.2 169.2C93.3 169.3 93.5 169.2 93.5 169.1C93.6 168.7 93.5 168.3 93.4 168Z" fill="#FFD795"/>
<path d="M144.9 172.5V171.3L143.9 171.6L131.9 164.7L131.7 164.6L119.1 157.4C118.3 156.9 117.1 157 116.7 157.5L100.7 180.3H100V181.4C100 182 101.1 182.6 102.2 182.3L144 173.2C144.7 173.1 145 172.8 144.9 172.5Z" fill="#A44126"/>
<path d="M144.9 171.3V163.7L135.5 165.5L132 163.5L131.8 163.4L119.2 156.2C118.4 155.7 117.2 155.8 116.8 156.3L106.4 171.1L100.1 172.3C100.1 172.3 100.1 173.6 100.1 176.1C100.1 178.5 100.1 180.4 100.1 180.4C100.2 181 101.3 181.5 102.3 181.2L144.1 172.1C144.7 172 145 171.6 144.9 171.3Z" fill="#FFD795"/>
<path d="M144.9 163.4V162.3H143.4L131.8 155.6L131.6 155.5L119 148.3C118.2 147.8 117 147.9 116.6 148.4L101 170.9L100.1 171V172.2C100 172.8 101.2 173.4 102.3 173.2L144.1 164.1C144.7 164.1 145 163.8 144.9 163.4Z" fill="#A44126"/>
<path d="M100.2 170.7L116.8 147.1C117.2 146.6 118.4 146.5 119.2 147L131.8 154.2L132 154.3L144.5 161.5C145.3 162 145.1 162.7 144.2 162.9L102.4 172C101.1 172.2 99.7 171.4 100.2 170.7Z" fill="#B6502F"/>
<path d="M125.3 151.7C123.9 150.8 121.1 148.9 119.2 148.2C118.6 148 117.4 148.1 116.9 148.9C115.8 150.5 113.8 153.5 113.3 154.4C111.7 157.1 109.5 159.8 107.4 163.2C106.2 165.2 104.9 167 103.6 169C103.2 169.7 103.8 170 104.6 169.8C105.6 169.5 109 169 112.8 167.9C120.4 165.8 130.9 163.9 133.1 163.4C135.3 162.9 141.6 162.3 140.3 161.1C139.6 160.6 127.8 153.3 125.3 151.7Z" fill="#CD6B3B"/>
<path d="M136.2 183.3V182L135.8 182.1C135.3 181.5 134.4 181 133 180.2C130.8 178.9 129.3 177.6 127 178.5C126 178.9 123.5 181.3 121.7 182.9C121.2 183.3 120.8 183.8 120.5 184.2L119.8 184.3V185.9C119.9 186.3 120.1 186.6 120.5 186.9C121.9 187.9 124.4 187 128.4 186.5C132.4 186 136.2 185.2 136.2 183.5C136.2 183.4 136.2 183.4 136.2 183.3Z" fill="#FB7377"/>
<path d="M133 178.7C130.8 177.4 129.3 176.1 127 177C126 177.4 123.5 179.8 121.7 181.4C119.9 183 119.1 184.4 120.4 185.4C121.8 186.4 124.3 185.5 128.3 185C132.3 184.5 136.1 183.7 136.1 182C136.2 180.3 135.3 180 133 178.7Z" fill="#F45C4D"/>
<path d="M133.7 179.7C132.8 179.1 130.9 177.4 127.7 177.4C128.4 177.9 129 178.3 129.5 179C129.1 178.8 126.8 178.7 126.1 178.6C126.6 178.9 127.1 179.4 127.6 179.9C126.8 179.6 125.6 179.6 124.8 179.7C125.2 179.9 125.7 180.4 126.1 180.8C125.2 180.5 123.8 180.6 123.5 180.8C123.7 181 124.5 181.6 124.6 181.7C123.9 181.6 122.9 181.7 122.2 181.8C122.5 182 123.2 182.4 123.6 182.6C122.9 182.6 122 182.6 121.4 182.9C121.9 183.2 122.6 183.3 123 183.6C122.5 183.8 121.9 184.4 121.5 184.8C122.3 184.8 123.2 184.2 123.6 184C123.9 184.1 124.2 184.5 124.4 184.8C124.7 184.4 124.9 183.9 124.9 183.4C125 183.5 125.6 184 125.9 184.2C126.3 183.8 126.6 183.3 126.6 182.8C126.9 183 127.3 183.4 127.6 184C128.4 183.6 128.3 182.7 128.3 181.9C128.3 181.9 129.3 182.8 129.9 183.6C130.2 183.3 130.5 182.2 130.5 181.8C130.6 181.9 131 182.4 131 182.6C131.3 183 131.5 183.4 131.5 183.4C131.5 183.4 131.9 182.4 131.7 181.7C132.1 182 132.4 182.5 132.9 182.9C133.3 182.3 133.2 181.1 132.8 180.4C133.4 181 134.3 181.6 134.8 182.3C135 181.7 134.7 180.4 133.7 179.7Z" fill="#FB6C55"/>
<path d="M130.8 178.7C130.2 179 127.9 180.2 127 180.8C126 181.3 124.7 182.2 124.3 182.5C123.9 182.8 123.2 183.5 123.2 183.5C123.2 183.5 124.2 183.5 125.2 182.9C126.2 182.3 128.1 181.4 129.7 180.6C131.3 179.8 131.5 179.7 132 179.4C132.3 179.2 131.5 178.4 130.8 178.7Z" fill="#FF7E71"/>
<path d="M122.1 186.6C122 186.4 121.8 186.1 121.7 185.9C121.7 185.8 121.6 185.8 121.5 185.9C121.3 186.2 121.4 186.7 121.8 186.8C122 186.8 122.2 186.7 122.1 186.6Z" fill="#FFD795"/>
<path d="M124.1 185.9C123.8 186 123.6 186.2 123.3 186.4C123.2 186.4 123.2 186.6 123.2 186.7C123.2 186.7 123.2 186.8 123.3 186.8C123.4 186.9 123.5 186.9 123.6 186.8C123.9 186.6 124.2 186.3 124.1 185.9C124.2 185.9 124.2 185.9 124.1 185.9Z" fill="#FFD795"/>
<path d="M120.9 186.1C120.8 185.9 120.6 185.7 120.5 185.6H120.4C120.2 185.9 120.4 186.3 120.6 186.4C120.8 186.4 121 186.2 120.9 186.1Z" fill="#FFD795"/>
<path d="M126.3 185.9C126.1 185.8 125.8 185.7 125.5 185.7C125.4 185.7 125.4 185.8 125.4 185.8C125.5 186.1 125.9 186.2 126.2 186.2C126.4 186.3 126.4 186 126.3 185.9Z" fill="#FFD795"/>
<path d="M128.5 185.3C128.3 185.5 128.1 185.7 128 185.9C128 186 128 186.1 128.1 186.1C128.5 186.1 128.7 185.8 128.8 185.5C128.8 185.3 128.6 185.1 128.5 185.3Z" fill="#FFD795"/>
<path d="M131.4 185.3C131.2 185.2 131 185.2 130.8 185.2C130.6 185.2 130.5 185.1 130.3 185.2C130.2 185.2 130.2 185.3 130.3 185.4C130.5 185.7 131.1 185.8 131.5 185.6C131.6 185.5 131.5 185.3 131.4 185.3Z" fill="#FFD795"/>
<path d="M133.8 184.2C133.8 184.1 133.6 184 133.5 184.1C133.3 184.3 133.2 184.5 133.1 184.7C133.1 184.8 133.2 184.9 133.3 184.9C133.7 185 133.9 184.6 133.8 184.2Z" fill="#FFD795"/>
<path d="M135.8 183.3C135.8 183.2 135.7 183.2 135.6 183.3C135.5 183.6 135.3 183.7 135.3 184C135.3 184.1 135.4 184.2 135.5 184.2C135.8 184.1 135.9 183.6 135.8 183.3Z" fill="#FFD795"/>
<path d="M118.5 159.6V158.3L118.9 158.4C119.4 157.8 120.3 157.3 121.7 156.5C123.9 155.2 125.4 153.9 127.7 154.8C128.7 155.2 131.2 157.6 133 159.2C133.5 159.6 133.9 160.1 134.2 160.5L134.9 160.6V162.2C134.8 162.6 134.6 162.9 134.2 163.2C132.8 164.2 130.3 163.3 126.3 162.8C122.3 162.3 118.5 161.5 118.5 159.8C118.5 159.7 118.5 159.7 118.5 159.6Z" fill="#FB7377"/>
<path d="M121.7 155C123.9 153.7 125.4 152.4 127.7 153.3C128.7 153.7 131.2 156.1 133 157.7C134.8 159.3 135.6 160.7 134.3 161.7C132.9 162.7 130.4 161.8 126.4 161.3C122.4 160.8 118.6 160 118.6 158.3C118.5 156.6 119.4 156.3 121.7 155Z" fill="#F45C4D"/>
<path d="M121.1 156C122 155.4 123.9 153.7 127.1 153.7C126.4 154.2 125.8 154.6 125.3 155.3C125.7 155.1 128 155 128.7 154.9C128.2 155.2 127.7 155.7 127.2 156.2C128 155.9 129.2 155.9 130 156C129.6 156.2 129.1 156.7 128.7 157.1C129.6 156.8 131 156.9 131.3 157.1C131.1 157.3 130.3 157.9 130.2 158C130.9 157.9 131.9 158 132.6 158.1C132.3 158.3 131.6 158.7 131.2 158.9C131.9 158.9 132.8 158.9 133.4 159.2C132.9 159.5 132.2 159.6 131.8 159.9C132.3 160.1 132.9 160.7 133.3 161.1C132.5 161.1 131.6 160.5 131.2 160.3C130.9 160.4 130.6 160.8 130.4 161.1C130.1 160.7 129.9 160.2 129.9 159.7C129.8 159.8 129.2 160.3 128.9 160.5C128.5 160.1 128.2 159.6 128.2 159.1C127.9 159.3 127.5 159.7 127.2 160.3C126.4 159.9 126.5 159 126.5 158.2C126.5 158.2 125.5 159.1 124.9 159.9C124.6 159.6 124.3 158.5 124.3 158.1C124.2 158.2 123.8 158.7 123.8 158.9C123.5 159.3 123.3 159.7 123.3 159.7C123.3 159.7 122.9 158.7 123.1 158C122.7 158.3 122.4 158.8 121.9 159.2C121.5 158.6 121.6 157.4 122 156.7C121.4 157.3 120.5 157.9 120 158.6C119.7 158 120 156.7 121.1 156Z" fill="#FB6C55"/>
<path d="M123.9 155C124.5 155.3 126.8 156.5 127.7 157.1C128.7 157.6 130 158.5 130.4 158.8C130.8 159.1 131.5 159.8 131.5 159.8C131.5 159.8 130.5 159.8 129.5 159.2C128.5 158.6 126.6 157.7 125 156.9C123.4 156.1 123.2 156 122.7 155.7C122.4 155.5 123.2 154.7 123.9 155Z" fill="#FF7E71"/>
<path d="M132.6 162.9C132.7 162.7 132.9 162.4 133 162.2C133 162.1 133.1 162.1 133.2 162.2C133.4 162.5 133.3 163 132.9 163.1C132.7 163.2 132.6 163 132.6 162.9Z" fill="#FFD795"/>
<path d="M130.6 162.2C130.9 162.3 131.1 162.5 131.4 162.7C131.5 162.7 131.5 162.9 131.5 163C131.5 163 131.5 163.1 131.4 163.1C131.3 163.2 131.2 163.2 131.1 163.1C130.8 162.9 130.5 162.6 130.6 162.2C130.6 162.2 130.5 162.2 130.6 162.2Z" fill="#FFD795"/>
<path d="M133.8 162.4C133.9 162.2 134.1 162 134.2 161.9H134.3C134.5 162.2 134.3 162.6 134.1 162.7C133.9 162.7 133.7 162.6 133.8 162.4Z" fill="#FFD795"/>
<path d="M128.5 162.3C128.7 162.2 129 162.1 129.3 162.1C129.4 162.1 129.4 162.2 129.4 162.2C129.3 162.5 128.9 162.6 128.6 162.6C128.4 162.6 128.3 162.4 128.5 162.3Z" fill="#FFD795"/>
<path d="M126.3 161.6C126.5 161.8 126.7 162 126.8 162.2C126.8 162.3 126.8 162.4 126.7 162.4C126.3 162.4 126.1 162.1 126 161.8C125.9 161.6 126.1 161.4 126.3 161.6Z" fill="#FFD795"/>
<path d="M123.3 161.6C123.5 161.5 123.7 161.5 123.9 161.5C124.1 161.5 124.2 161.4 124.4 161.5C124.5 161.5 124.5 161.6 124.4 161.7C124.2 162 123.6 162.1 123.2 161.9C123.2 161.8 123.2 161.6 123.3 161.6Z" fill="#FFD795"/>
<path d="M120.9 160.6C120.9 160.5 121.1 160.4 121.2 160.5C121.4 160.7 121.5 160.9 121.6 161.1C121.6 161.2 121.6 161.3 121.4 161.3C121.1 161.3 120.8 160.9 120.9 160.6Z" fill="#FFD795"/>
<path d="M118.9 159.7C118.9 159.6 119 159.6 119.1 159.7C119.2 160 119.4 160.1 119.4 160.4C119.4 160.5 119.3 160.6 119.2 160.6C118.9 160.4 118.8 160 118.9 159.7Z" fill="#FFD795"/>
<path d="M125.9 173.4V172.2L142.3 169.4C142.3 169.4 143.2 173.6 139.5 174C135 174.6 132.5 174.4 130.6 174.6C128.7 174.9 126.7 174.4 125.9 173.4Z" fill="#FB7377"/>
<path d="M125.9 172.2L142.2 169C142.2 169 143.2 172.3 139.5 172.8C135 173.4 132.5 173.2 130.6 173.4C128.7 173.7 126.7 173.2 125.9 172.2Z" fill="#F45C4D"/>
<path d="M141.6 169.1C141.6 169.1 141.6 169.5 141.3 170.3C141 171.1 140.4 171.8 139.8 172C139.9 171 139.5 170.3 139.5 170.3C139.5 170.3 139.1 172 136.5 172.4C137.4 171.6 137.2 170.8 137.2 170.8C137.2 170.8 136.5 171.6 135.3 172C134.2 172.4 133.3 172.4 133.3 172.4C133.3 172.4 134.1 171.4 134.1 171.1C133 171.7 132 172.3 130.7 172.5C129.3 172.7 128 171.8 128 171.8L141.6 169.1Z" fill="#FB6C55"/>
<path d="M141.6 172.3C141.6 172.2 141.5 172.2 141.4 172.3C141.3 172.4 141.3 172.5 141.3 172.7C141.2 172.9 141.6 173 141.6 172.8C141.7 172.6 141.7 172.5 141.6 172.3Z" fill="#FFD795"/>
<path d="M140.1 172.8C140.1 172.7 139.9 172.7 139.9 172.8C139.7 173 139.7 173.5 140 173.6C140.1 173.7 140.3 173.6 140.3 173.4C140.3 173.2 140.2 173 140.1 172.8Z" fill="#FFD795"/>
<path d="M138.7 173.3C138.5 173.5 138.2 173.6 138.1 173.8C138 173.9 138.1 174 138.2 174.1C138.6 174.1 138.8 173.7 138.8 173.4C138.8 173.3 138.7 173.3 138.7 173.3Z" fill="#FFD795"/>
<path d="M137.2 173.7C137.1 173.5 136.8 173.4 136.5 173.4C136.5 173.4 136.4 173.4 136.4 173.5C136.3 173.9 136.8 174.2 137.1 174C137.3 173.9 137.3 173.8 137.2 173.7Z" fill="#FFD795"/>
<path d="M135.2 173.4C134.9 173.5 134.6 173.6 134.4 173.8C134.3 173.9 134.4 174.1 134.5 174.1C134.9 174.1 135.2 173.8 135.3 173.5C135.4 173.5 135.3 173.4 135.2 173.4Z" fill="#FFD795"/>
<path d="M132.5 173.5C132.4 173.4 132.3 173.5 132.3 173.6C132.4 173.9 132.5 174 132.7 174.2C132.8 174.3 132.9 174.2 133 174.2C133 174.2 133 174.2 133.1 174.2C133.2 174.2 133.2 174.1 133.2 174C133.1 173.6 132.7 173.6 132.5 173.5Z" fill="#FFD795"/>
<path d="M127.2 173.3C127.1 173.2 126.9 173.2 126.9 173.4C126.9 173.7 127.1 174.2 127.5 174.1C127.6 174.1 127.6 174 127.6 174C127.6 173.7 127.4 173.6 127.2 173.3Z" fill="#FFD795"/>
<path d="M130.3 173.8L130.2 173.7C129.9 173.8 129.6 174 129.5 174.2C129.5 174.2 129.5 174.3 129.5 174.4C129.8 174.5 130.4 174.2 130.3 173.8Z" fill="#FFD795"/>
<path d="M112.6 161.9V161.7L112.2 159.8L112.9 159.6C113.2 159 113.6 158.4 114 157.9C116.5 155.2 122.3 154.1 124.6 155.9C124.8 156.1 125 156.2 125.2 156.4H125.3L126.9 157.4L127.2 159.1C127.2 159.1 127.2 159.1 127.2 159.2V159.3C127.4 160.7 125.6 161.9 124.4 162.6C122.2 163.8 119.9 164.8 117.4 164.8C115.7 164.8 113.4 164.2 112.6 162.5C112.7 162.1 112.7 162 112.6 161.9Z" fill="#FFBB69"/>
<path d="M113.7 156.2C116.2 153.5 122 152.4 124.3 154.2C125.5 155.1 126.3 155.7 126.9 157C127.6 158.6 125.6 160 124.3 160.7C122.1 161.9 119.8 162.9 117.3 162.9C115.6 162.9 113.3 162.3 112.5 160.6C111.7 159 112.6 157.3 113.7 156.2Z" fill="#FFD795"/>
<path d="M125 156.4C124.7 155.6 123.1 155.9 122.3 155.8C121.3 155.7 121.5 155 120.2 154.8C119.3 154.7 118.4 155.3 117.5 155.5C117 155.6 116.6 155.8 116.2 156.1C115.7 156.6 115.3 157.3 115 157.9C114.7 158.4 114.1 159.1 114.1 159.6C114.1 160.6 115.3 160.9 116.1 161.2C117.5 161.6 118.3 161 119.5 160.4C121 159.6 122.6 159.6 123.9 158.5C124.5 158 125.4 157.2 125 156.4Z" fill="#FFE4BD"/>
<path d="M119.1 156.3C118.7 156.3 118.1 156.5 118 157C118 157.1 118.1 157.3 118.2 157.2C118.4 157.1 118.5 157 118.6 156.9C118.8 156.8 118.9 156.7 119.1 156.6C119.3 156.5 119.3 156.3 119.1 156.3Z" fill="#5F1D18"/>
<path d="M118.1 158.7C118 158.6 117.8 158.6 117.6 158.5C117.4 158.4 117.3 158.3 117.2 158.3C117.1 158.3 117.1 158.3 117.1 158.4C117.1 158.8 117.7 159.2 118.1 159.1C118.2 159 118.3 158.8 118.1 158.7Z" fill="#5F1D18"/>
<path d="M119.8 157.4C119.6 157.5 119.4 157.6 119.3 157.8C119.1 157.9 119 158 118.9 158.2C118.9 158.3 118.9 158.4 119 158.5C119.5 158.6 120 158 120 157.6C119.9 157.4 119.8 157.4 119.8 157.4Z" fill="#5F1D18"/>
<path d="M121 156.4C120.9 156.4 120.8 156.5 120.9 156.6C121 156.7 121.1 156.8 121.1 157C121.2 157.2 121.1 157.3 121.1 157.5C121.2 157.7 121.3 157.8 121.5 157.6C122 157.3 121.5 156.4 121 156.4Z" fill="#5F1D18"/>
<path d="M109.8 162.2L109.7 162L108.9 160.2L109.5 159.9C109.6 159.2 109.9 158.6 110.2 158C111.9 154.7 117.2 152.2 120 153.4C120.3 153.5 120.5 153.6 120.7 153.7L120.8 153.6L122.6 154.1L123.3 155.7L123.4 155.8C123.9 157.1 122.5 158.8 121.5 159.6C119.7 161.3 117.7 162.9 115.2 163.5C113.5 163.9 111.2 163.9 110 162.5C110 162.4 109.9 162.2 109.8 162.2Z" fill="#FFBB69"/>
<path d="M109.4 156.3C111.1 153 116.4 150.5 119.2 151.7C120.5 152.2 121.5 152.6 122.4 153.8C123.5 155.2 121.9 157.1 120.8 158.1C119 159.8 117 161.4 114.5 162C112.8 162.4 110.5 162.4 109.3 161C108.3 159.6 108.7 157.7 109.4 156.3Z" fill="#FFD795"/>
<path d="M120.5 153.7C120 153 118.5 153.6 117.7 153.8C116.7 153.9 116.7 153.2 115.4 153.4C114.5 153.5 113.8 154.3 113 154.7C112.6 154.9 112.2 155.2 111.9 155.6C111.5 156.2 111.4 157 111.2 157.7C111.1 158.2 110.6 159 110.7 159.6C111 160.5 112.2 160.6 113 160.6C114.5 160.7 115.1 159.9 116.1 159C117.4 157.9 118.9 157.5 119.9 156C120.4 155.4 121 154.5 120.5 153.7Z" fill="#FFE4BD"/>
<path d="M114.7 155.1C114.3 155.2 113.8 155.6 113.8 156C113.8 156.1 114 156.3 114.1 156.2C114.3 156.1 114.3 156 114.5 155.8C114.6 155.6 114.8 155.5 114.9 155.4C115 155.3 114.9 155.1 114.7 155.1Z" fill="#5F1D18"/>
<path d="M114.4 157.7C114.2 157.6 114.1 157.6 113.9 157.6C113.7 157.6 113.6 157.5 113.4 157.5C113.3 157.5 113.3 157.6 113.3 157.6C113.4 158 114.1 158.2 114.4 158C114.6 157.9 114.5 157.8 114.4 157.7Z" fill="#5F1D18"/>
<path d="M115.6 156C115.4 156.1 115.3 156.3 115.2 156.5C115 156.7 114.9 156.8 114.9 157C114.9 157.1 115 157.2 115.1 157.2C115.6 157.2 115.9 156.5 115.8 156.1C115.8 156 115.7 156 115.6 156Z" fill="#5F1D18"/>
<path d="M116.6 154.7C116.5 154.7 116.4 154.9 116.5 155C116.6 155.1 116.7 155.2 116.8 155.3C116.9 155.4 116.9 155.6 117 155.8C117.1 156 117.3 156 117.4 155.8C117.7 155.3 117 154.6 116.6 154.7Z" fill="#5F1D18"/>
<path d="M129.7 178.6L129.8 178.4L130.3 176.5L131 176.6C131.5 176.2 132.1 175.8 132.7 175.6C136.1 174.2 141.8 175.7 143.2 178.3C143.3 178.5 143.5 178.8 143.6 179H143.7L144.7 180.5L144.3 182.2C144.3 182.2 144.3 182.2 144.3 182.3V182.4C143.9 183.8 141.7 184.1 140.4 184.2C137.9 184.3 135.4 184.3 133.1 183.2C131.6 182.4 129.7 181 129.7 179.1C129.7 178.9 129.8 178.8 129.7 178.6Z" fill="#FFBB69"/>
<path d="M133.2 173.9C136.6 172.5 142.3 174 143.7 176.6C144.4 177.9 144.8 178.8 144.8 180.3C144.8 182 142.3 182.5 140.8 182.5C138.3 182.6 135.8 182.6 133.5 181.5C132 180.7 130.1 179.3 130.1 177.4C130.2 175.6 131.7 174.5 133.2 173.9Z" fill="#FFD795"/>
<path d="M143.3 178.9C143.3 178.1 141.8 177.6 141.1 177.2C140.2 176.7 140.7 176.2 139.6 175.4C138.8 174.9 137.8 175.1 136.9 174.9C136.4 174.8 136 174.8 135.5 174.9C134.8 175.1 134.2 175.6 133.6 176C133.2 176.3 132.3 176.6 132 177.2C131.6 178.1 132.5 178.9 133.1 179.5C134.2 180.5 135.1 180.3 136.5 180.2C138.2 180.1 139.6 180.8 141.3 180.4C142.2 180.2 143.3 179.9 143.3 178.9Z" fill="#FFE4BD"/>
<path d="M138 176.3C137.6 176.1 137 176.1 136.7 176.4C136.6 176.5 136.7 176.7 136.8 176.7C137 176.7 137.1 176.7 137.3 176.7C137.5 176.7 137.7 176.7 137.9 176.6C138.1 176.7 138.1 176.4 138 176.3Z" fill="#5F1D18"/>
<path d="M136.1 178.1C136 177.9 135.9 177.8 135.8 177.7C135.7 177.6 135.6 177.4 135.5 177.3H135.4C135.2 177.7 135.6 178.3 136 178.3C136.1 178.4 136.2 178.3 136.1 178.1Z" fill="#5F1D18"/>
<path d="M138.1 177.6C137.9 177.6 137.7 177.7 137.4 177.7C137.2 177.7 137 177.7 136.9 177.9C136.8 178 136.8 178.1 136.9 178.2C137.3 178.5 138 178.2 138.2 177.8C138.3 177.7 138.2 177.6 138.1 177.6Z" fill="#5F1D18"/>
<path d="M139.7 177.2C139.6 177.1 139.5 177.2 139.5 177.4C139.5 177.6 139.6 177.7 139.6 177.9C139.6 178.1 139.5 178.2 139.4 178.4C139.4 178.6 139.5 178.8 139.7 178.7C140.2 178.4 140.1 177.5 139.7 177.2Z" fill="#5F1D18"/>
<path d="M108.7 176.6L123 174C123 174 122.7 176.9 117.3 178C111.8 179.1 108.7 176.6 108.7 176.6Z" fill="#FFE4BD"/>
<path d="M108.7 176.6V178.6C108.7 178.6 111.9 180.4 117.1 179.3C122.3 178.2 123 176 123 176V174.1C122.4 174.7 121.5 176.9 116.2 177.6C112.5 178.1 108.7 176.6 108.7 176.6Z" fill="#FFBB69"/>
<path d="M116.2 175.7C116.2 175.6 116 175.6 116 175.7C115.9 175.9 115.9 176.2 116 176.4C116.1 176.5 116.2 176.5 116.3 176.4C116.4 176.1 116.3 175.9 116.2 175.7Z" fill="#5F1D18"/>
<path d="M115.2 175.5C114.9 175.6 114.7 175.7 114.6 176C114.5 176.1 114.6 176.3 114.8 176.3C115.1 176.2 115.3 176 115.4 175.7C115.5 175.6 115.3 175.5 115.2 175.5Z" fill="#5F1D18"/>
<path d="M117.7 175.7C117.6 175.4 117.2 175.3 117 175.4C117 175.4 117 175.4 117 175.5C117 175.8 117.3 176 117.6 176C117.6 176 117.7 175.9 117.7 175.7Z" fill="#5F1D18"/>
<path d="M121.8 170.1L135.9 166.7C135.9 166.7 135.8 169.6 130.4 171C125 172.4 121.8 170.1 121.8 170.1Z" fill="#FFE4BD"/>
<path d="M121.8 170.1L121.9 172.1C121.9 172.1 125.2 173.7 130.3 172.2C135.4 170.8 136 168.5 136 168.5L135.9 166.6C135.4 167.2 134.6 169.5 129.4 170.6C125.7 171.4 121.8 170.1 121.8 170.1Z" fill="#FFBB69"/>
<path d="M129.2 168.7C129.2 168.6 129 168.7 129 168.7C128.9 168.9 128.9 169.2 129.1 169.4C129.2 169.5 129.3 169.5 129.4 169.3C129.4 169.2 129.3 168.9 129.2 168.7Z" fill="#5F1D18"/>
<path d="M128.2 168.6C127.9 168.7 127.7 168.8 127.6 169.1C127.5 169.2 127.7 169.4 127.8 169.4C128.1 169.3 128.2 169.1 128.3 168.8C128.4 168.7 128.3 168.6 128.2 168.6Z" fill="#5F1D18"/>
<path d="M130.7 168.7C130.5 168.5 130.2 168.3 129.9 168.5V168.6C129.9 168.9 130.3 169.1 130.6 169C130.7 168.9 130.7 168.8 130.7 168.7Z" fill="#5F1D18"/>
<path d="M103.7 175.8L103.6 174.6L119.8 171C119.8 171 120.9 175.1 117.2 175.8C112.8 176.6 110.2 176.5 108.3 176.8C106.5 177.2 104.4 176.8 103.7 175.8Z" fill="#FB7377"/>
<path d="M103.6 174.6L119.7 170.7C119.7 170.7 120.9 174 117.2 174.6C112.8 175.4 110.2 175.3 108.3 175.6C106.5 175.9 104.4 175.5 103.6 174.6Z" fill="#F45C4D"/>
<path d="M119.1 170.8C119.1 170.8 119.1 171.2 118.9 172C118.7 172.8 118.1 173.5 117.4 173.8C117.5 172.8 117 172.1 117 172.1C117 172.1 116.7 173.8 114.1 174.3C115 173.4 114.7 172.6 114.7 172.6C114.7 172.6 114.1 173.4 112.8 173.9C111.7 174.4 110.9 174.4 110.9 174.4C110.9 174.4 111.6 173.4 111.7 173C110.6 173.6 109.7 174.3 108.3 174.5C106.9 174.8 105.6 173.9 105.6 173.9L119.1 170.8Z" fill="#FB6C55"/>
<path d="M119.3 174C119.3 173.9 119.2 173.9 119.1 174C119 174.1 119 174.2 119 174.4C118.9 174.6 119.3 174.7 119.3 174.5C119.4 174.3 119.4 174.2 119.3 174Z" fill="#FFD795"/>
<path d="M117.8 174.5C117.8 174.4 117.6 174.4 117.6 174.5C117.4 174.7 117.4 175.2 117.8 175.3C117.9 175.4 118.1 175.3 118.1 175.1C118 174.9 117.9 174.7 117.8 174.5Z" fill="#FFD795"/>
<path d="M116.4 175.1C116.2 175.3 115.9 175.4 115.8 175.6C115.7 175.7 115.8 175.8 116 175.8C116.4 175.8 116.6 175.4 116.6 175C116.5 175.1 116.4 175.1 116.4 175.1Z" fill="#FFD795"/>
<path d="M115 175.6C114.9 175.4 114.5 175.3 114.3 175.3C114.3 175.3 114.2 175.3 114.2 175.4C114.1 175.8 114.6 176.1 114.9 175.9C115 175.8 115 175.6 115 175.6Z" fill="#FFD795"/>
<path d="M112.9 175.4C112.6 175.5 112.3 175.6 112.1 175.8C112 175.9 112.1 176.1 112.3 176.1C112.7 176.1 113 175.8 113.1 175.5C113.1 175.4 113 175.3 112.9 175.4Z" fill="#FFD795"/>
<path d="M110.2 175.5C110.1 175.4 110 175.6 110 175.7C110.1 176 110.2 176.1 110.5 176.3C110.6 176.3 110.7 176.3 110.8 176.3C110.8 176.3 110.8 176.3 110.9 176.3C111 176.3 111 176.2 111 176.1C110.8 175.7 110.5 175.7 110.2 175.5Z" fill="#FFD795"/>
<path d="M105 175.7C104.9 175.6 104.7 175.6 104.7 175.8C104.7 176.1 104.9 176.6 105.3 176.5C105.4 176.5 105.4 176.4 105.4 176.4C105.4 176.1 105.1 175.9 105 175.7Z" fill="#FFD795"/>
<path d="M108 176L107.9 175.9C107.6 176 107.4 176.2 107.2 176.4C107.2 176.4 107.2 176.5 107.2 176.6C107.6 176.7 108.2 176.4 108 176Z" fill="#FFD795"/>
<path opacity="0.5" d="M99.5 174.4C99.2 174 97.4 174.6 97.1 174.7C96.7 174.9 96 175.1 95.8 175.5C95.7 175.8 95.8 176 96 176.2C96.2 176.3 96.5 176.4 96.7 176.5C97 176.6 97.3 176.8 97.6 176.9C98 176.9 98.2 176.8 98.4 176.5C98.6 176.2 98.6 175.9 98.9 175.7C99.1 175.6 99.3 175.5 99.4 175.3C99.7 174.9 99.7 174.6 99.5 174.4Z" fill="#FCB363"/>
<path opacity="0.5" d="M99.2 176.5C98.8 176.4 98 178.2 97.8 178.5C97.6 178.8 97.4 179.3 97.7 179.7C97.9 180 98.2 180.1 98.5 179.9C98.9 179.7 99.1 179.2 99.2 178.8C99.3 178.3 99.7 177.8 99.7 177.2C99.7 177 99.5 176.6 99.2 176.5Z" fill="#FCB363"/>
<path opacity="0.5" d="M113.3 182.1C113.1 181.6 112.4 181.5 112 181.5C111 181.5 110.2 181.9 109.2 182C108.8 182 108.4 181.9 108 181.9C107.7 181.9 107.4 181.7 107.2 181.9C106.8 182.1 106.7 182.4 106.9 182.8C107.1 183.3 108 183.6 108.5 183.7C108.9 183.8 109.3 183.8 109.7 183.9C110.2 184 110.6 184.3 111.1 184.3C111.9 184.4 113.8 183.2 113.3 182.1Z" fill="#FCB363"/>
<path opacity="0.5" d="M119.2 179.5C118.8 179.5 118.4 179.6 118.1 179.6C117.8 179.6 117.4 179.6 117.2 179.9C116.8 180.4 117.8 180.7 118.1 180.7C118.5 180.7 118.8 180.6 119.1 180.4C119.3 180.3 119.7 180.1 119.8 179.8C119.9 179.5 119.6 179.4 119.2 179.5Z" fill="#FCB363"/>
<path opacity="0.5" d="M146 171C145.7 171.2 145.7 171.6 145.7 172C145.6 172.7 145.6 173.4 145.5 174.1C145.5 174.3 145.7 174.4 145.8 174.3C146.5 173.9 147.1 173.3 147.2 172.5C147.4 172 147 170.5 146 171Z" fill="#FCB363"/>
<path d="M146.9 166.2C146.8 166.2 146.5 166.4 146.5 166.3C146.4 166.3 146.3 166.3 146.3 166.4C146.2 166.6 146.3 166.8 146.5 166.9C146.8 167 147.1 166.8 147.2 166.5C147.2 166.3 147.1 166.1 146.9 166.2Z" fill="white"/>
<path d="M146.8 164.8C146.6 164.8 146.4 164.8 146.2 165C146 165.1 146.2 165.3 146.4 165.3C146.6 165.3 146.7 165.2 146.9 165C146.9 165 146.9 164.8 146.8 164.8Z" fill="white"/>
<path d="M93.4 176.4C93.2 176.5 93.1 176.6 92.9 176.6C92.8 176.7 92.7 176.7 92.5 176.8C92.4 176.9 92.5 176.9 92.5 177C92.8 177.4 93.5 177 93.5 176.6C93.6 176.5 93.5 176.3 93.4 176.4Z" fill="white"/>
<path d="M93.5999 175.5C93.1999 175.4 92.7999 175.6 92.5999 175.9C92.3999 176.1 92.5999 176.4 92.7999 176.3C93.0999 176.2 93.4999 176 93.6999 175.6C93.6999 175.5 93.5999 175.5 93.5999 175.5Z" fill="white"/>
<path d="M103.9 183.6C103.6 183.6 103.3 183.7 103 183.8C102.8 183.8 102.8 184.1 103 184.2C103.4 184.3 103.8 184.3 104.1 184.1C104.2 183.9 104.1 183.6 103.9 183.6Z" fill="white"/>
<path d="M105.1 183.8C105 183.7 104.9 183.9 104.9 184C104.9 184.2 104.9 184.5 104.9 184.7C104.9 184.8 105.1 184.9 105.1 184.8C105.6 184.5 105.5 184 105.1 183.8Z" fill="white"/>
<path d="M117.2 182.6C116.6 182.5 116 183 116.1 183.6C116.1 183.8 116.3 183.8 116.4 183.7C116.5 183.6 116.6 183.5 116.7 183.3C116.8 183.2 117 183.1 117.1 183C117.4 182.9 117.4 182.7 117.2 182.6Z" fill="white"/>
<path d="M117.6 184.7C117.5 184.5 117.4 184.4 117.2 184.2C117.1 184.1 117 184.2 117 184.3C116.9 184.6 117.1 185 117.5 184.9C117.5 184.9 117.6 184.8 117.6 184.7Z" fill="white"/>
<path d="M117.8 183.4C117.7 183.4 117.6 183.7 117.8 183.7C118.1 183.7 118.1 183.9 118.3 184.1C118.4 184.2 118.7 184.1 118.7 183.9C118.7 183.5 118.2 183.3 117.8 183.4Z" fill="white"/>
<path d="M119.1 182.2C118.8 182.2 118.5 182.3 118.5 182.6C118.5 182.7 118.6 182.9 118.7 182.8C118.9 182.7 119 182.6 119.2 182.6C119.3 182.5 119.3 182.2 119.1 182.2Z" fill="white"/>
<path d="M115.3 184.7C115.1 184.9 115 185.1 115 185.3C115 185.5 115.2 185.5 115.3 185.4C115.5 185.2 115.6 185 115.6 184.8C115.6 184.7 115.4 184.6 115.3 184.7Z" fill="white"/>
<path d="M145.4 176.8C145.3 176.8 145.3 176.9 145.4 177C145.5 177.2 145.7 177.4 145.9 177.4C146.1 177.4 146.2 177.3 146.2 177.1C146.1 176.8 145.7 176.6 145.4 176.8Z" fill="white"/>
<path d="M146.8 176.5C146.7 176.5 146.6 176.6 146.7 176.7C146.8 176.9 146.8 177.1 146.9 177.3C147 177.4 147.1 177.4 147.2 177.3C147.4 176.9 147.2 176.5 146.8 176.5Z" fill="white"/>
<path d="M146.9 167.9C146.7 167.7 146.5 167.6 146.2 167.6C146.1 167.6 146 167.7 146 167.8C146.1 168.1 146.4 168.4 146.7 168.3C146.9 168.2 147 168 146.9 167.9Z" fill="white"/>
<path d="M147.6 167.3C147.4 167.4 147.3 167.5 147.1 167.6C147 167.7 147 167.9 147.1 167.9C147.4 168.1 147.9 167.8 147.9 167.4C147.9 167.3 147.8 167.2 147.6 167.3Z" fill="white"/>
<path d="M138.3 159.6C137.8 159.5 137.3 159.6 137 160C136.9 160.1 137.1 160.3 137.2 160.3C137.6 160.2 138 160.1 138.3 159.9C138.5 159.9 138.5 159.7 138.3 159.6Z" fill="white"/>
<path d="M136.6 159.2C136.4 159.1 136.3 159.1 136 159C135.7 159 135.7 159.3 135.9 159.4C136.1 159.5 136.3 159.5 136.5 159.5C136.7 159.5 136.7 159.3 136.6 159.2Z" fill="white"/>
<path d="M91.8 172.9C91.6 172.7 91.1 172.7 90.8 172.7C90.6 172.7 90.5 173 90.7 173C91 173.2 91.4 173.3 91.7 173.2C91.9 173.2 91.9 173 91.8 172.9Z" fill="white"/>
<path d="M92.8 173C92.6 173.2 92.3 173.3 92.1 173.5C92 173.6 92.1 173.8 92.2 173.8C92.6 173.8 92.9 173.5 93.1 173.2C93.2 173.1 92.9 172.9 92.8 173Z" fill="white"/>
<path d="M92.5 174.7C92.2 174.6 92 174.6 91.7 174.7C91.6 174.7 91.6 174.9 91.6 175C91.9 175.3 92.2 175.2 92.5 175C92.6 174.8 92.6 174.7 92.5 174.7Z" fill="white"/>
<path d="M94.5 173.6C94.4 173.4 94.2 173.5 94.1 173.6C94 173.8 93.9 174 93.9 174.3C93.9 174.4 94.1 174.5 94.2 174.5C94.6 174.4 94.7 173.9 94.5 173.6Z" fill="white"/>
<path d="M95.3999 172.8C95.1999 172.8 95.0999 173.1 95.2999 173.3C95.5999 173.5 95.7999 173.7 96.0999 173.8C96.1999 173.8 96.2999 173.7 96.2999 173.6C96.4999 173 95.7999 172.8 95.3999 172.8Z" fill="white"/>
<path d="M97.1 172.2C96.9 172.3 96.9 172.5 96.9 172.7C96.9 172.8 97 172.9 97.1 172.9C97.3 172.8 97.4 172.7 97.5 172.5C97.6 172.2 97.3 172 97.1 172.2Z" fill="white"/>
<path d="M92 171.4C91.9 171.3 91.7 171.3 91.6 171.2C91.4 171.2 91.3 171.1 91.2 171C91.1 171 91 171 91.1 171.1C91.1 171.5 91.7 171.9 92.1 171.7C92.1 171.8 92.1 171.5 92 171.4Z" fill="white"/>
<path d="M91.3 170.3C90.9 170.2 90.5 170.4 90.3 170.7C90.2 170.8 90.3 171.1 90.5 171C90.8 170.9 91.1 170.8 91.4 170.7C91.5 170.5 91.5 170.3 91.3 170.3Z" fill="white"/>
<path d="M98.7 172.1C98.7 172 98.4 171.9 98.4 172.1C98.4 172.3 98.2 172.4 98.1 172.5C98 172.7 98.2 172.8 98.3 172.8C98.7 172.7 98.8 172.4 98.7 172.1Z" fill="white"/>
<path d="M123.8 165C123.7 164.7 123.4 164.5 123.2 164.5C123.1 164.5 123 164.6 123 164.7C123.1 165 123.3 165.2 123.6 165.3C123.7 165.3 123.8 165.2 123.8 165Z" fill="white"/>
<path d="M125.9 164.2C125.8 164.4 125.6 164.6 125.6 164.8C125.6 164.9 125.7 165.1 125.8 165C126 164.9 126.1 164.7 126.3 164.4C126.5 164.2 126.1 163.9 125.9 164.2Z" fill="white"/>
<path d="M120.1 149.9C119.8 149.8 119.4 149.8 119.2 150.1C119.2 150.2 119.2 150.3 119.3 150.3C119.5 150.4 119.8 150.4 120 150.3C120.2 150.2 120.3 150 120.1 149.9Z" fill="white"/>
<path d="M121 149.7C120.9 149.6 120.6 149.7 120.7 149.9C120.8 150 120.8 150.2 120.8 150.3C120.8 150.4 121 150.5 121.1 150.4C121.3 150.2 121.2 149.9 121 149.7Z" fill="white"/>
<path d="M118.9 149C118.6 149.1 118.2 149.4 118.2 149.8C118.2 149.9 118.4 150 118.5 149.9C118.7 149.7 118.8 149.5 119 149.5C119.3 149.4 119.2 148.9 118.9 149Z" fill="white"/>
<path d="M121.1 150.8C120.8 150.7 120.5 150.6 120.2 150.7C120.1 150.7 120.1 150.9 120.2 151C120.4 151.2 120.7 151.2 121 151.2C121.2 151.2 121.3 151 121.1 150.8Z" fill="white"/>
<path d="M122.4 150.6C122.3 150.5 122.2 150.6 122.2 150.6C122.1 150.8 122 151 122 151.2C122 151.4 122.2 151.4 122.3 151.4C122.6 151.2 122.6 150.8 122.4 150.6Z" fill="white"/>
<path d="M117.5 150.4C117.3 150.4 117.1 150.5 117 150.7C116.9 150.8 117 151.1 117.2 151C117.4 150.9 117.6 150.8 117.7 150.7C117.7 150.5 117.6 150.3 117.5 150.4Z" fill="white"/>
<path d="M137.4 160.9C137.3 161 137.3 161.1 137.4 161.2C137.6 161.4 137.7 161.5 137.8 161.7C137.9 161.8 138.1 161.9 138.2 161.7C138.3 161.3 137.8 160.7 137.4 160.9Z" fill="white"/>
<path d="M138.9 161.3C138.8 161.2 138.7 161.3 138.7 161.3C138.6 161.5 138.5 161.7 138.6 161.9C138.6 162 138.8 162.2 138.9 162C139.1 161.8 139.1 161.6 138.9 161.3Z" fill="white"/>
<path d="M140.6 161.6C140.4 161.6 140.2 161.6 140 161.6C139.8 161.6 139.7 161.6 139.5 161.6C139.4 161.6 139.4 161.7 139.4 161.8C139.6 162.2 140.3 162.2 140.6 161.9C140.9 161.8 140.7 161.6 140.6 161.6Z" fill="white"/>
<path d="M141.5 161.3C141.4 161.2 141.3 161.3 141.3 161.4C141.3 161.6 141.3 161.8 141.4 162C141.5 162.1 141.8 162.1 141.8 161.9C141.7 161.6 141.7 161.4 141.5 161.3Z" fill="white"/>
<path d="M105.4 167.2C105.1 167.4 104.9 167.6 104.9 167.9C104.9 168 105 168.1 105.1 168C105.3 167.9 105.5 167.6 105.6 167.4C105.7 167.3 105.5 167.1 105.4 167.2Z" fill="white"/>
<path d="M107.4 166.8C107.1 166.6 106.8 166.5 106.5 166.5C106.4 166.5 106.4 166.6 106.4 166.7C106.6 167 106.9 167.1 107.2 167.1C107.4 167.2 107.5 166.9 107.4 166.8Z" fill="white"/>
<path d="M107.6 165.3C107.4 165.1 107.1 165 106.8 165.1C106.7 165.1 106.7 165.3 106.8 165.3C107 165.4 107.2 165.6 107.5 165.6C107.7 165.7 107.7 165.4 107.6 165.3Z" fill="white"/>
<path d="M109.2 165.5C108.8 165.5 108.3 165.7 108.3 166.2C108.3 166.4 108.5 166.4 108.6 166.3C108.8 166.1 109 165.8 109.2 165.6C109.4 165.6 109.3 165.5 109.2 165.5Z" fill="white"/>
<path d="M103.8 168.7C103.6 168.6 103.3 168.6 103.2 168.7C103.2 168.7 103.1 168.8 103.1 168.9C103.2 169.1 103.6 169 103.8 169C103.9 169 103.9 168.8 103.8 168.7Z" fill="white"/>
<path d="M109.9 167C109.8 167.1 109.7 167.2 109.7 167.4C109.7 167.5 109.7 167.6 109.8 167.6H109.9C110 167.6 110 167.6 110.1 167.6C110.3 167.5 110.3 167.3 110.3 167.1C110.2 167 110.1 166.9 109.9 167Z" fill="white"/>
<path d="M111.7 166.6C111.4 166.4 111 166.5 110.7 166.6C110.6 166.7 110.6 166.8 110.7 166.8C111 166.9 111.3 167 111.6 167C111.8 167 111.9 166.7 111.7 166.6Z" fill="white"/>
<path d="M111.6 165.3C111.3 165.3 111 165.4 110.8 165.6C110.7 165.7 110.8 166 111 166C111.3 166 111.6 165.9 111.8 165.7C111.9 165.5 111.8 165.3 111.6 165.3Z" fill="white"/>
<path d="M109.5 164.1C109.3 164 109.1 164.4 109.3 164.5C109.5 164.6 109.7 164.8 109.9 165C110 165.1 110.2 165 110.2 164.8C110.1 164.4 109.8 164.3 109.5 164.1Z" fill="white"/>
<path d="M116.4 165.5C116.1 165.5 115.8 165.7 115.7 166C115.6 166.2 115.9 166.3 116 166.3C116.3 166.1 116.5 165.8 116.4 165.5C116.4 165.5 116.5 165.5 116.4 165.5Z" fill="white"/>
<path d="M115.3 164.9C115.1 165 115.1 165 115 165.1C114.8 165.3 115 165.5 115.2 165.5C115.4 165.5 115.4 165.5 115.5 165.4C115.6 165.1 115.5 164.8 115.3 164.9Z" fill="white"/>
<path d="M118.2 165.7C118 165.4 117.8 165.4 117.5 165.4C117.4 165.4 117.4 165.6 117.5 165.6C117.7 165.7 117.8 165.8 118 165.9C118.1 166 118.3 165.9 118.2 165.7Z" fill="white"/>
<path d="M125.1 163.7C124.8 163.8 124.5 163.9 124.3 164.2C124.2 164.4 124.4 164.6 124.6 164.5C124.9 164.4 125.2 164.2 125.3 163.9C125.4 163.8 125.3 163.7 125.1 163.7Z" fill="white"/>
<path d="M105.3 168.8C105.3 168.7 105.1 168.6 105 168.8C104.9 169 104.9 169.1 104.9 169.3C104.9 169.5 105.2 169.6 105.3 169.4C105.3 169.1 105.3 169 105.3 168.8Z" fill="white"/>
<path d="M107 168.3C106.8 168 106.6 168 106.3 168.1C106.2 168.1 106.2 168.2 106.2 168.2V168.3C106.3 168.5 106.6 168.6 106.8 168.6C106.9 168.7 107.1 168.5 107 168.3Z" fill="white"/>
<path d="M73 19.6C73 19.6 80.7 18.4 85.5 18.3C90.3 18.2 97 20.4 97 20.4C97 20.4 94.7 16.7 85.5 16.2C76.3 15.9 73 19.6 73 19.6Z" fill="#D3C6B6"/>
<path d="M101.2 3.2C101.2 3.2 92.7 8.6 91.2 12.7C89.7 16.8 89.7 16.8 89.7 16.8L93.9 18.3C94 18.3 93.1 12.5 101.2 3.2Z" fill="#D3C6B6"/>
<path d="M99.5 16.3C99.5 16.3 102.9 10.8 109.7 8.9C116.5 6.9 118.6 9.8 118.6 9.8C118.6 9.8 114.3 9.1 106.9 12.7C99.5 16.3 99.5 16.3 99.5 16.3Z" fill="#D3C6B6"/>
<path d="M82.4 52.2C82.4 52.2 92.7 53.7 103.6 52.2C114.5 50.7 124.1 45.1 124.1 45.1L124.4 48.2C124.4 48.2 116.3 53.5 105.1 55.4C93.9 57.4 83.3 55 83.3 55L82.4 52.2Z" fill="#D3C6B6"/>
<path d="M169.9 55C168.2 57.9 168.5 62.2 176.3 66.1C184.1 70.1 189.5 70.8 190.6 67.7C191.7 64.6 188 59.4 182.9 57.2C177.7 55.1 171.5 52.4 169.9 55Z" fill="#C1B09D"/>
<path d="M170.8 62.2C170.8 62.2 171.5 58.8 171.8 55.6C172.1 52.6 171.8 49.8 173 47.8C175.3 43.6 179.9 39.1 182.5 38.8C185.2 38.5 203.1 48 203.1 48C203.1 48 193.2 52.6 188.8 58.2C185.6 62.3 183 69 183 69C183 69 174 66.2 170.8 62.2Z" fill="#FFC8B5"/>
<path d="M226.7 31.6C225.4 20.5 210 11.6 191.1 11.6C172.2 11.6 156.8 20.4 155.5 31.6H155.4V33.4C155.6 45.1 171.5 54.6 191.1 54.6C210.7 54.6 226.6 45.1 226.8 33.4V31.6H226.7V31.6Z" fill="#E8DEDD"/>
<path d="M191 10.3C171.3 10.3 155.3 19.9 155.3 31.7C155.3 43.5 171.3 53.1 191 53.1C210.7 53.1 226.7 43.5 226.7 31.7C226.8 19.9 210.8 10.3 191 10.3Z" fill="#F4ECE4"/>
<path d="M191.2 12.9C173.9 12.9 159.8 21.3 159.8 31.7C159.8 42.1 173.8 50.5 191.2 50.5C208.5 50.5 222.6 42.1 222.6 31.7C222.6 21.3 208.5 12.9 191.2 12.9Z" fill="#E6DBCC"/>
<path d="M191.2 15.9C175.7 15.9 163.2 23.4 163.2 32.7C163.2 42 175.8 49.5 191.2 49.5C206.7 49.5 219.2 42 219.2 32.7C219.2 23.4 206.7 15.9 191.2 15.9Z" fill="#D3C6B6"/>
<path d="M171.4 23.7C171.4 23.7 172 27.2 170.9 29C169.8 30.7 168.1 27.9 168.1 27.9L171.4 23.7Z" fill="#FB7377"/>
<path d="M206.9 24.2C206.9 24.2 211.4 20.8 212.8 17.8C214.2 14.8 215.8 12.5 217.1 12.4C218.4 12.2 217.9 13.6 216.9 15.3C215.8 17 214.7 19.4 213.2 21.1C211.7 22.8 208.2 25.5 208.2 25.5L206.9 24.2Z" fill="#FB7377"/>
<path d="M208.2 24.5C208.2 24.5 213.4 22.3 215.5 19.8C217.6 17.3 219.7 15.4 221 15.6C222.3 15.8 221.5 17 220 18.3C218.5 19.6 216.8 21.7 214.9 23C213 24.3 208.9 26 208.9 26L208.2 24.5Z" fill="#FB7377"/>
<path d="M186.7 18.7C186.7 18.7 188.8 13.6 189.9 12.5C191 11.4 192.4 11.8 191.4 13.5C190.4 15.2 187.4 19.3 187.4 19.3L186.7 18.7Z" fill="#FB7377"/>
<path d="M184.1 27.8C184.1 27.8 184.7 20.4 185.6 18.4C186.6 16.5 188.5 16.5 187.9 19.1C187.3 21.7 186.5 26.9 186.5 26.9L184.1 27.8Z" fill="#F45C4D"/>
<path d="M190.2 19.2C190.2 19.2 193.8 15.1 195.3 14.3C196.7 13.6 197.9 14.4 196.4 15.7C194.9 17 190.7 19.8 190.7 19.8L190.2 19.2Z" fill="#FB7377"/>
<path d="M184.8 27C184.8 27 187.7 20.2 189.3 18.6C190.8 17.1 192.7 17.7 191.3 20C189.9 22.3 187.4 27 187.4 27H184.8Z" fill="#F45C4D"/>
<path d="M199 16.4C199 16.4 203.1 12.7 204.6 12.2C206.1 11.7 207.1 12.6 205.5 13.7C203.9 14.8 199.4 17.1 199.4 17.1L199 16.4Z" fill="#FB7377"/>
<path d="M192.6 23.5C192.6 23.5 196.3 17.1 198 15.7C199.7 14.4 201.4 15.2 199.8 17.3C198.2 19.4 195.1 23.7 195.1 23.7L192.6 23.5Z" fill="#F45C4D"/>
<path d="M201.9 18.4C201.9 18.4 207 16.3 208.6 16.2C210.2 16.2 210.9 17.4 209 17.9C207.1 18.4 202.1 19.2 202.1 19.2L201.9 18.4Z" fill="#FB7377"/>
<path d="M193.6 23.1C193.6 23.1 199.2 18.2 201.2 17.5C203.2 16.8 204.6 18.1 202.4 19.6C200.2 21.1 195.9 24.2 195.9 24.2L193.6 23.1Z" fill="#F45C4D"/>
<path d="M226.9 23.4C225.7 22.8 218.5 25.5 218.5 25.5V28.9C219.9 28.1 226.1 27.7 227 27C227.9 26.2 228.1 24 226.9 23.4Z" fill="#F45C4D"/>
<path d="M221.9 23.5C220.2 22.6 215.4 24.7 215.4 24.7L214.1 30.8C216.1 29.7 220.9 29.8 222.1 28.7C223.3 27.6 223.6 24.4 221.9 23.5Z" fill="#FB7377"/>
<path d="M216 23.8C213.6 22.8 208.7 25.5 208.7 25.5L208.2 34.3C210.8 32.6 215.3 32.4 216.8 30.8C218.3 29.1 218.4 24.8 216 23.8Z" fill="#FB6C55"/>
<path d="M172.7 26.8C172.8 26.8 173.6 26.9 173.7 27C175.1 27.6 175.1 28.8 175 30.2C175 30.4 175.2 30.6 175.4 30.5C176.2 30 178 28.6 177 27.5C176.3 26.8 175.2 26.4 174.2 26.5C174.7 26.3 175.1 26 175.5 25.7C176.1 26.1 176.6 26.1 176.9 26.8C177.2 27.4 177.3 28.2 177.3 28.9C177.3 29.1 177.5 29.2 177.7 29.1C178.6 28.6 179.9 27.5 179.1 26.3C178.8 25.9 178.4 25.7 178 25.5C178.4 25.5 179.1 25.3 180 25.7C180.7 26.1 180.9 26.8 181 27.7C181.1 28.2 181.2 29 181.9 28.7C182.6 28.4 183.1 27.2 182.9 26.5C182.7 25.9 181.9 25.6 181.2 25.5C181.6 25.4 181.9 25.2 182.3 25C183.1 24.5 184.4 23.7 184.4 22.6C184.4 21.9 183.9 21.5 183.3 21.8C182.8 22.1 181.4 24 181.4 24C181.3 23.1 181.6 21.2 180.8 21.1C180.2 21 179.2 21 179.1 21.8C179 22.3 179.2 23 179.5 23.4C180.2 24.2 180.4 24.6 180.3 25.1C179.5 25 177.4 25.1 176.5 25.7C176.4 25.6 176.1 25.4 176 25.4C176.3 25.1 176.6 24.8 176.8 24.4C177 24.1 177.4 23.6 177.3 23.2C177 22.6 175.8 22.4 175.2 22.2C175.1 22.2 174.9 22.3 174.9 22.4C174.7 23.2 175.1 24 174.7 24.8C174.4 25.5 173.8 25.9 173.4 26.5C173.2 26.6 173 26.7 172.8 26.8C172.6 26.7 172.6 26.8 172.7 26.8Z" fill="#89AD33"/>
<path d="M177.5 25.7C177.4 25.2 177.1 24.9 176.7 24.5C176.6 24.4 176.4 24.2 176.2 24C176.5 23.8 176.9 23.7 177.2 23.5C177.8 23.7 178.3 23.9 178.7 24.4C178.9 24.7 179.1 25 179.4 25.1C180.2 25.4 180.5 24.5 180.5 24C180.5 23.4 180.3 22.5 179.5 22.4C179.2 22.3 178.9 22.4 178.5 22.5C178.6 22.4 178.7 22.3 178.8 22.1C179 21.8 179.4 21.1 179.5 20.7C179.7 20.6 179.9 20.4 180.1 20.2C180.5 19.9 180.9 19.7 181.4 19.5C181.7 19.4 182 19.3 182.1 19C182.2 18.7 181.9 18.6 181.7 18.4C181.4 18.2 181.3 17.8 181 17.7C180.7 17.6 180.3 17.6 180.1 17.8C179.9 17.9 179.7 18.1 179.5 18.4C179.4 17.9 179.3 17.5 179 17C178.7 16.5 178.3 15.9 177.7 16.4C177 17 176.9 17.1 177.5 17.8C177.9 18.3 178.5 18.1 179 19.4C178.4 18.9 177.1 18.6 176.5 19.1C176 19.5 175.7 20.5 176.4 20.8C176.8 21 177.3 21 177.7 20.9C178.2 20.8 178.6 20.8 179 20.9C178.8 21.5 178.4 22.1 177.8 22.6C177.3 23 176.7 23.2 176.2 23.5C176.4 22.6 176 21.6 175.4 21C175.8 20.6 175.6 20.1 175.3 19.6C175.3 19.4 175.4 19.1 175.4 18.9C175.5 18.5 175.9 18 175.9 17.6C176 17 175.5 16.6 174.9 16.7C174.3 16.8 173.9 17.5 173.8 18.1C173.7 18.4 173.8 18.6 173.9 18.9C174.1 19.2 174.7 19.6 175 20C175.3 20.4 175.1 20.7 175.1 20.8C175 20.8 174.4 20.3 174.3 20.2C174 19.7 173.5 19.1 173 19.1C172.4 19.1 171.6 19.7 171.2 20.1C170.1 21.2 172 22.5 172.9 22.9C173.1 23 173.3 22.8 173.4 22.6C173.4 22.3 173.5 20.5 174.3 20.7C174.6 20.8 174.9 21.2 175.1 21.5C175.6 22.2 175.5 22.9 175.6 23.6C174.1 23.3 173.6 25.6 173.7 26.1C173.8 26.1 174.2 25.4 174.7 25.3C175.5 25.3 175.9 26.4 176.5 26.8C177.5 27.6 177.7 26.3 177.5 25.7Z" fill="#89AD33"/>
<path d="M187.4 16.9C187.3 17.1 187.2 17.2 187 17.3C186.3 17.6 185.3 16.8 184.8 17.2C184.4 17.9 183.8 18.5 183.1 18.9C183.2 19 183.3 19.1 183.4 19.3C183.8 19.1 184.3 19 184.7 18.8C185.1 18.7 185.5 18.5 185.9 18.5C186.5 18.5 187 19.1 187 19.7C187 20.2 186.8 21.4 186.2 21.4C185.9 21.4 185.5 21.1 185.2 21C185.1 20.9 185 20.9 184.9 20.8C185 21 185.1 21.3 185.1 21.5C185.2 22.3 184.6 22.9 183.8 22.8C183.7 22.8 183.6 22.7 183.6 22.6C183.5 22.1 183.6 21.3 183.3 20.5C183.2 20.1 183.2 19.7 182.7 19.1C182.5 19.2 181.7 19.5 181.3 19.2C181.3 19 181.9 18.8 182.3 18.7C182.8 18.3 183.2 18.2 183.6 17.8C183.3 17.8 183 17.7 182.7 17.7C182.4 17.7 181.7 17.3 181.1 17.8C180.6 17.4 181.4 16.6 181.7 16.2C182.2 15.7 182.9 15.6 183.5 15.9C183.9 16.1 184.2 16.5 184.2 16.9C184.2 16.8 184.3 16.7 184.3 16.6C185 14.6 183.3 14.6 182.5 13.4C182.4 13.3 182.4 13.2 182.5 13.1C182.9 12.4 184 11.8 184.7 12.5C185.3 13.1 185.2 15.1 184.9 15.9C185.2 15.4 185.7 15 186 14.9C186.8 14.6 187.5 14.8 188.2 15.3C187.5 15.9 187.5 16.7 187.4 16.9Z" fill="#89AD33"/>
<path d="M188.1 24.5C188.1 24.5 188.4 22.6 186.6 21.5C184.8 20.3 181.2 20.4 177.1 22.4C173 24.4 172.3 27.3 171.7 28.5C171.1 29.7 170.8 30.5 170.8 30.5C170.8 30.5 177.2 29.5 180 28.5C184 26.9 188.1 24.5 188.1 24.5Z" fill="#FFE366"/>
<path d="M175.3 21.9C177.6 20.1 181.5 19.2 184.1 19.6C186.5 20 186.6 20.3 187.8 21.7C185.9 20.6 181.7 20.6 179.5 21.3C176.8 22.1 173.1 24.4 172.6 27.5C172.5 27.7 172.4 27.8 172.3 28C171.5 29.1 170.2 30.4 170.2 30.4L169.9 29.7C169.9 29.6 171 25.3 175.3 21.9Z" fill="#FFBA00"/>
<path d="M187.9 24.7C187.9 24.7 188.4 24.3 188.8 24.1C188.7 23.5 188.4 22.3 187.9 21.8C186.8 20.7 185.4 20.1 181.8 20.6C176.5 21.4 175.7 22.6 173.8 24.8C171.9 27 170.3 30.4 170.3 30.4H171.3C171.3 30.4 174.1 25.1 175.8 23.6C177.9 21.7 182.5 20.5 185.3 21.2C188.1 22 187.9 24.7 187.9 24.7Z" fill="#FFD800"/>
<path d="M183.8 26.3C183.8 26.3 186.5 25.2 186.7 23.8C186.9 22.4 186 21.6 184.6 21.5C183.2 21.4 182.9 22.6 182.6 23.9C182.3 25.2 182.1 27 182.1 27C182.1 27 183.1 26.7 183.8 26.3Z" fill="#FFD800"/>
<path d="M180.8 27.6C180.8 27.5 182 23.8 181.6 22.8C181.2 21.8 179.5 21.5 178.2 22.8C177 24 177.7 25.3 178.4 26.2C179 27.2 180.8 27.6 180.8 27.6Z" fill="#FFD800"/>
<path d="M179.1 28C179.1 28 177.4 26.2 176.6 25.3C175.7 24.5 174.9 25.3 174.3 26.4C173.7 27.5 173.4 28.5 174.9 28.9C176.2 29.4 179.1 28 179.1 28Z" fill="#FFD800"/>
<path d="M185.6 23.4C185.7 23.2 185.7 22.9 185.8 22.6C185.8 22.5 185.9 22.5 185.9 22.5C186.4 22.9 186 24.2 185.4 24.1C185.3 24.1 185.3 24 185.3 23.9C185.3 23.7 185.5 23.6 185.6 23.4Z" fill="white"/>
<path d="M180.4 23.6C180.4 23.4 180.4 23.1 180.4 22.9C180.4 22.7 180.6 22.7 180.7 22.8C181 23.1 181.3 24.2 180.6 24.3C180.5 24.3 180.4 24.3 180.4 24.2C180.3 23.9 180.4 23.8 180.4 23.6Z" fill="white"/>
<path d="M175.6 25.6C176.1 25.6 176.8 26.2 176.6 26.8C176.5 26.9 176.4 26.9 176.3 26.9C176.1 26.8 176.1 26.6 176 26.5C175.9 26.3 175.7 26.2 175.5 26C175.4 25.8 175.4 25.6 175.6 25.6Z" fill="white"/>
<path d="M176.9 21.7C179.5 20.5 183.6 19.2 186.4 20.8V20.9C185.3 20.8 184.3 20.6 183.4 20.6C181.2 20.7 179.2 21.3 176.9 22C176.7 21.9 176.8 21.8 176.9 21.7Z" fill="white"/>
<path d="M208.4 25.9C206.7 25.4 205.1 28 203.5 28.3C200.8 28.9 198 29.4 195.2 29.8C189.8 30.5 184.2 30.8 178.7 30.6C173.8 30.4 167.4 30.3 163.9 26.6C163.4 27.1 163.5 26.5 163 27C160 34.2 164 38.3 170 41.6C177.3 45.6 186.7 45.7 194.5 44C198.5 43.1 203 41.9 206.4 40C209.3 38.4 211.2 36.2 211.2 28.9C211.3 26.6 211.2 26.7 208.4 25.9Z" fill="#FB7377"/>
<path d="M210.6 25.3C207.4 20.2 200.4 19 193.1 21C188.5 22.2 185.4 24.6 181.4 25.9C174.6 28.1 171.8 28.2 171 27.9C169.1 27.1 172 24.6 171.4 23.7C170.5 22.4 168.6 22.2 167.2 22.7C163.4 24.1 162.2 28.6 163.1 31.9C165.7 41.6 181.8 40.5 189.8 39.3C195.1 38.5 202.2 37.2 206.4 34.3C209.8 31.9 213 29.2 210.6 25.3Z" fill="#F45C4D"/>
<path d="M209.6 25.5C206.7 20.8 200.2 19.7 193.5 21.5C189.3 22.6 186.4 24.8 182.7 26C176.5 28 171.4 28.7 170.7 28.5C168.1 27.8 171.1 25.2 170.5 24.3C169.7 23.1 167.8 22.8 166.6 23.4C164.4 24.5 162.8 28.6 163.7 31.7C166.1 40.6 183 39.4 190.4 38.3C195.2 37.6 201.8 36.4 205.6 33.7C208.8 31.5 211.8 29.1 209.6 25.5Z" fill="#FB7377"/>
<path d="M164.1 28.4C164.1 28.4 163.3 30.5 163.7 31.7C164.1 32.9 163.7 33.9 166 35.7C168.3 37.5 171.5 38.4 174.5 39C177.4 39.6 183.2 39.4 184.8 39.3C186.5 39.2 193.9 37.9 196.1 37.4C198.3 36.9 203.3 35.6 205.4 34.3C207.5 33.1 209.4 31.2 210.2 29.7C210.9 28.3 210.6 27.4 210.6 27.4C210.6 27.4 194.6 31.9 189.7 33C184.7 34.2 167.6 34.4 164.1 28.4Z" fill="#EDAE5E"/>
<path d="M167.6 23.4C166.8 24.1 166.7 25.4 167.4 26.3C166.1 27 164.9 27.8 164.4 28.9C163.4 31 166.1 31.1 167.4 31.1C166.9 32.6 168.5 33 168.9 33.1C169.8 33.3 170.4 33.2 171.2 33C171.2 33.7 173.2 35 174.7 34.9C176.1 34.8 177.6 34.5 178.6 33.5C178.5 34.9 181.4 36.2 183.4 36.1C185.3 35.9 186 34.8 187 33.4C187.3 34.2 189.7 35.6 191.4 35.7C192.5 35.8 193.5 35.7 194.4 35.1C194.6 35 196 34.2 197 32.9C199.3 34.7 203.4 34.8 204.1 31.4C206.7 31.3 208.6 28.6 209.5 26C208.7 25.2 207.6 24.6 206.6 24.6C206.5 23.8 206.2 23 205.6 22.4C203.9 20.7 201.5 21.7 200 23.3C199.7 22.9 199.3 22.5 198.8 22.2C196.3 20.7 193.7 22.6 192.2 24.7C191.7 24.2 191.1 23.8 190.3 23.8C189.1 23.7 186.5 25 185.6 26.4C185.2 26.2 184.8 26 184.3 25.9C182.3 25.6 180.4 26.9 179.3 28.5C179 28.2 178.7 27.9 178.3 27.7C176.5 26.9 174.8 27.9 173.4 29C172.9 28.3 172 27.9 171.2 28.2C171.3 27.2 170.9 26.3 169.9 25.9C170.1 25.4 170.2 25 170.2 24.5C170.2 24.5 170.3 24.5 170.3 24.4C170.6 23.7 170.1 23 169.4 22.8C169.1 22.7 168.8 22.6 168.5 22.7C168.2 22.9 167.9 23.1 167.6 23.4Z" fill="#FFD795"/>
<path d="M166 25C166 25.3 166 25.6 166 26C164 26.6 163.9 27.3 163.1 28.8C162.1 30.8 163.5 33.3 165.4 32.9C164.8 36 169.1 36.2 170.5 35.8C170.8 37.1 172.3 38 173.6 38.2C175.5 38.5 177.7 38.1 179.2 36.9C180 38.5 182.2 39.5 183.9 39.5C185.5 39.5 187.1 38.6 188.1 37.3C189.8 38.9 191.7 39.3 194.3 38.4C195.5 38 196.7 37.3 197.5 36.4C199.3 37.7 202 37 203.8 35.7C204.6 35.1 205.5 34.4 206 33.5C207.1 33 209.6 31.3 210.3 27.7C210.2 27.2 209.8 26.6 209.3 26.2C208.5 28.8 206.5 31.5 203.9 31.6C203.3 35 199.2 35 196.8 33.1C195.7 34.4 194.4 35.2 194.2 35.3C193.2 35.9 192.3 36 191.2 35.9C189.5 35.8 187.1 34.4 186.8 33.6C185.8 35 185.1 36.1 183.2 36.3C181.3 36.5 178.4 35.1 178.4 33.7C177.4 34.7 175.9 35 174.5 35.1C173 35.2 171 33.9 171 33.2C170.2 33.3 169.6 33.5 168.7 33.3C168.3 33.2 166.7 32.8 167.2 31.3C165.9 31.2 163.2 31.2 164.2 29.1C164.7 28 165.9 27.2 167.2 26.5C166.5 25.6 166.6 24.3 167.4 23.6C167.7 23.3 168 23.1 168.2 22.8C167.7 22.9 167.3 23 166.9 23.3C166.6 23.6 166.1 24.3 166 25Z" fill="#FFC678"/>
<path d="M167.8 27.1C167.7 26.9 167 26.6 166.3 27.4C166.1 27.6 166 27.8 165.9 28C165.8 28.3 165.7 28.7 166 28.9C166.3 29.1 166.7 29 166.9 28.9C167.5 28.6 168.3 27.8 167.8 27.1Z" fill="#FFE2BB"/>
<path d="M168.5 29.8C168.4 29.8 168.3 29.9 168.2 30C167.7 30.2 167.8 31.1 168 31.5C168.2 31.8 168.4 32.1 168.8 32C169.1 31.9 169.3 31.6 169.4 31.3C169.6 30.8 169.3 29.6 168.5 29.8Z" fill="#FFE2BB"/>
<path d="M180 32C179.9 32 179.8 32.1 179.7 32.2C179.2 32.4 179.3 33.3 179.5 33.7C179.7 34 179.9 34.3 180.3 34.2C180.6 34.1 180.8 33.8 180.9 33.5C181 33 180.7 31.8 180 32Z" fill="#FFE2BB"/>
<path d="M200.4 32.7C201 31.9 199.3 30.9 198.7 30.8C198.3 30.8 197.8 30.9 197.7 31.3C197.6 31.7 197.8 32.1 198 32.4C198.5 32.8 199.9 33.4 200.4 32.7Z" fill="#FFE2BB"/>
<path d="M206.2 28C205.7 27.1 204.1 28.3 203.8 28.8C203.6 29.2 203.5 29.6 203.9 29.9C204.2 30.2 204.7 30.1 205 30C205.6 29.8 206.7 28.8 206.2 28Z" fill="#FFE2BB"/>
<path d="M188.7 25.2C187.8 24.7 187.3 25.5 187.1 26C187 26.3 187 26.7 187.3 27C187.6 27.2 188 27.1 188.2 27C188.7 26.6 189.4 25.6 188.7 25.2Z" fill="#FFE2BB"/>
<path d="M173.5 31.4C173.2 31.2 172.7 31 172.4 31.2C171.7 31.7 172.4 32.7 172.8 33.1C173.3 33.5 174.4 34.3 174.9 33.4C175.2 32.8 173.7 31.5 173.5 31.4Z" fill="#FFE2BB"/>
<path d="M189.5 31.6C189.2 31.4 188.7 31.2 188.4 31.4C187.7 31.9 188.4 32.9 188.8 33.3C189.3 33.7 190.4 34.5 190.9 33.6C191.2 32.9 189.7 31.7 189.5 31.6Z" fill="#FFE2BB"/>
<path d="M176.1 28.2C175.9 27.9 175.5 28 175.2 28.2C174.7 28.6 174.2 29 174.1 29.3C174 29.6 174.2 29.9 174.5 30.1C174.8 30.3 175.2 30.1 175.5 29.9C176 29.6 176.7 28.8 176.1 28.2Z" fill="#FFE2BB"/>
<path d="M196.2 23.1C196 22.8 195.6 22.9 195.3 23.1C194.8 23.5 194.3 23.9 194.2 24.2C194.1 24.5 194.3 24.8 194.6 25C194.9 25.2 195.3 25 195.6 24.8C196.1 24.5 196.7 23.7 196.2 23.1Z" fill="#FFE2BB"/>
<path d="M182.5 27C182.3 26.8 181.9 26.8 181.7 27C181.2 27.3 180.7 27.7 180.7 28C180.7 28.3 180.8 28.6 181 28.8C181.3 29 181.7 28.8 181.9 28.6C182.4 28.3 183 27.6 182.5 27Z" fill="#FFE2BB"/>
<path d="M188.4 28.6C187.5 28.4 186.1 28 185.7 27.2C185.4 27.8 185.1 28.2 184.6 28.6C184.1 28.9 183.6 29.1 183.2 29.5C183.2 29.5 183.2 29.5 183.2 29.6C182 29.3 180.6 29.6 179.8 30.5C179.7 30.6 179.8 30.7 179.9 30.6C181.1 30 182.8 29.9 183.9 30.8C184.3 31.1 184.8 30.6 184.5 30.2C184.4 30.1 184.3 30 184.2 30C184.5 29.9 185.7 29.5 186.5 30.9C186.4 30.6 186.7 29.1 188.4 28.6Z" fill="#FFC678"/>
<path d="M176.9 30.3C176.4 30.2 175.8 30.4 175.3 30.7C175.1 30.5 174.9 30.4 174.7 30.3C173.9 30 172.9 30 172.2 30.4V30.5C172.9 30.6 173.6 30.5 174.3 30.9C174.7 31.1 175.1 31.7 175.5 31.8C175.6 31.8 175.7 31.8 175.7 31.7C175.8 31.5 175.8 31.2 175.6 31C175.9 31 176.2 30.9 176.5 30.9C177 30.9 177.3 31.1 177.7 31.3C177.8 31.4 178 31.3 178 31.1C178 30.5 177.4 30.3 176.9 30.3Z" fill="#FFC678"/>
<path d="M169.8 28.7C169.9 28.5 169.7 28.1 169.7 27.9C169.5 27.5 169.2 27.2 168.8 27C168.6 26.9 168.5 27.1 168.7 27.3C169 27.5 169.2 27.8 169.2 28.2C169.2 28.3 169.2 28.5 169.2 28.6C169.1 28.6 169 28.7 168.9 28.9C169 29 169.1 29 169.2 29C169.4 29.1 169.6 29.2 169.8 29.3C170.1 29.5 170.2 29.9 170.5 30.1C170.6 30.2 170.8 30.1 170.9 29.9C171.1 29.5 170.4 28.9 169.8 28.7Z" fill="#FFC678"/>
<path d="M197.1 26.8C196.2 26.9 195.3 26.8 194.7 26.6C194.2 26.4 193.8 26.1 193.4 25.8C193.3 25.7 193.2 25.5 193 25.4C193.4 26.5 193.2 27.3 193 27.5C192 27.5 191 27.8 190.6 28.6C190.6 28.7 190.6 28.8 190.7 28.7C191.4 28.5 192 28.2 192.8 28.2C193.6 28.2 194.2 28.4 194.9 28.7C195.4 28 196.2 27.2 197.1 26.8Z" fill="#FFC678"/>
<path d="M205.7 24.8C204.9 24.9 204.1 25.1 203.3 25.1C202.9 25.1 202.4 25.1 202 24.9C201.5 24.8 200.9 24.5 200.5 24.2C200.9 25.1 200 25.7 199.4 26.2C199.3 26.3 199.4 26.5 199.5 26.4C200.4 26.1 201.9 26.5 202.4 27.5C203 26.6 203.7 25.6 205.7 24.8Z" fill="#FFC678"/>
<path d="M218.1 36.4C218 36.4 217.3 36 217.2 36C216.1 35 216.3 33.9 216.9 32.6C217 32.4 216.8 32.1 216.6 32.2C215.7 32.4 213.6 33.3 214.2 34.6C214.6 35.5 215.6 36.1 216.6 36.4C216.1 36.5 215.6 36.6 215.1 36.8C214.7 36.3 214.2 36.1 214.1 35.4C214 34.7 214.1 34 214.3 33.3C214.3 33.1 214.2 32.9 214 33C213 33.2 211.4 33.9 211.9 35.2C212 35.6 212.4 36 212.8 36.3C212.4 36.2 211.7 36.2 210.9 35.6C210.4 35.1 210.4 34.3 210.5 33.4C210.6 32.9 210.7 32.1 209.9 32.2C209.2 32.3 208.3 33.3 208.3 34C208.3 34.6 209 35.2 209.6 35.4C209.2 35.4 208.8 35.5 208.4 35.6C207.5 35.8 206 36.2 205.7 37.3C205.5 37.9 205.9 38.5 206.6 38.4C207.2 38.3 209 36.9 209 36.9C208.8 37.8 208 39.5 208.7 39.9C209.3 40.2 210.2 40.5 210.5 39.8C210.7 39.3 210.8 38.6 210.6 38.1C210.2 37.1 210.1 36.7 210.3 36.2C211 36.5 213.1 37.1 214.1 36.8C214.2 36.9 214.4 37.2 214.5 37.3C214.1 37.5 213.7 37.7 213.4 38C213.1 38.2 212.6 38.6 212.6 39C212.7 39.6 213.8 40.2 214.3 40.6C214.4 40.7 214.6 40.6 214.7 40.5C215.2 39.8 215 39 215.6 38.3C216.1 37.7 216.8 37.5 217.4 37C217.6 37 217.8 36.9 218.1 36.9C218.1 36.6 218.1 36.4 218.1 36.4Z" fill="#89AD33"/>
<path d="M213.1 36.1C213.1 36.6 213.3 37 213.5 37.5C213.6 37.7 213.7 37.9 213.9 38.1C213.5 38.2 213.1 38.2 212.8 38.3C212.3 37.9 211.8 37.6 211.6 37C211.5 36.7 211.4 36.3 211.2 36.1C210.6 35.6 210 36.3 209.9 36.9C209.7 37.5 209.7 38.4 210.4 38.7C210.7 38.8 211 38.9 211.4 38.9C211.2 39 211.1 39.1 211 39.2C210.7 39.4 210.1 40 209.9 40.3C209.7 40.3 209.4 40.5 209.2 40.6C208.7 40.8 208.3 40.9 207.8 40.9C207.5 40.9 207.1 40.9 207 41.2C206.8 41.5 207 41.7 207.2 41.9C207.4 42.2 207.4 42.6 207.7 42.8C208 43 208.3 43.1 208.6 43C208.9 43 209.1 42.8 209.3 42.6C209.2 43.1 209.3 43.5 209.4 44C209.5 44.6 209.8 45.3 210.5 44.9C211.3 44.5 211.5 44.4 211.1 43.6C210.9 43.1 210.2 43 210.2 41.6C210.6 42.2 211.8 42.9 212.5 42.6C213.1 42.4 213.7 41.5 213.1 41C212.8 40.7 212.3 40.6 211.9 40.5C211.4 40.4 211 40.4 210.7 40.1C211.1 39.6 211.6 39.1 212.3 38.9C212.9 38.7 213.5 38.6 214.1 38.5C213.7 39.3 213.7 40.4 214.1 41.1C213.6 41.4 213.7 41.9 213.8 42.4C213.7 42.6 213.6 42.9 213.5 43.1C213.2 43.5 212.8 43.8 212.6 44.2C212.4 44.7 212.7 45.3 213.3 45.3C213.9 45.4 214.5 44.8 214.8 44.3C214.9 44 214.9 43.8 214.9 43.5C214.8 43.2 214.3 42.6 214.1 42.1C213.9 41.7 214.2 41.4 214.2 41.3C214.3 41.4 214.7 42 214.8 42.1C215 42.7 215.2 43.4 215.7 43.6C216.3 43.8 217.2 43.4 217.7 43.2C219 42.5 217.6 40.7 216.9 40C216.7 39.8 216.5 39.9 216.4 40.1C216.3 40.4 215.7 42.1 215 41.6C214.8 41.4 214.6 40.9 214.5 40.6C214.2 39.8 214.5 39.2 214.6 38.4C216 39.1 217.1 37 217.1 36.6C217 36.6 216.4 37.1 215.9 37C215.1 36.8 215 35.6 214.6 35C213.7 34.3 213.1 35.5 213.1 36.1Z" fill="#89AD33"/>
<path d="M196.3 40.8C196 41.2 195.8 41.6 195.7 42.1C195.7 42.3 195.6 42.5 195.5 42.8C195.2 42.6 194.9 42.4 194.5 42.2C194.4 41.6 194.3 41 194.5 40.4C194.6 40.1 194.8 39.8 194.8 39.4C194.7 38.6 193.8 38.7 193.3 39.1C192.8 39.5 192.2 40 192.4 40.7C192.5 41 192.7 41.3 193 41.5C192.8 41.5 192.7 41.4 192.5 41.4C192.1 41.4 191.3 41.4 190.9 41.5C190.7 41.3 190.4 41.3 190.2 41.2C189.7 41 189.3 40.8 189 40.5C188.8 40.3 188.5 40 188.2 40.1C187.9 40.2 187.9 40.5 187.9 40.7C187.9 41.1 187.6 41.3 187.6 41.7C187.6 42 187.9 42.3 188.1 42.5C188.3 42.7 188.6 42.7 188.9 42.7C188.5 43 188.2 43.4 188 43.8C187.7 44.3 187.4 45 188.2 45.2C189.1 45.5 189.2 45.5 189.5 44.7C189.7 44.1 189.3 43.7 190.2 42.6C190.1 43.4 190.5 44.6 191.2 45C191.8 45.2 192.8 45 192.8 44.3C192.8 43.8 192.5 43.5 192.2 43.1C191.9 42.7 191.7 42.4 191.6 42C192.2 41.9 192.9 41.9 193.6 42.2C194.2 42.4 194.7 42.8 195.2 43.1C194.4 43.4 193.6 44.2 193.4 45C192.9 44.9 192.5 45.3 192.3 45.8C192.1 45.9 191.8 46 191.6 46C191.1 46.1 190.6 46 190.2 46.2C189.7 46.4 189.6 47.1 190 47.5C190.4 47.9 191.2 48 191.7 47.8C192 47.7 192.1 47.5 192.3 47.3C192.5 47 192.5 46.2 192.7 45.7C192.9 45.3 193.2 45.3 193.4 45.2C193.4 45.3 193.3 46.1 193.3 46.2C193 46.7 192.7 47.4 193 47.9C193.3 48.4 194.2 48.8 194.8 48.9C196.3 49.3 196.4 47 196.4 46C196.4 45.8 196.1 45.6 195.9 45.7C195.6 45.8 194 46.7 193.8 45.8C193.8 45.5 194 45 194.1 44.8C194.4 44 195.1 43.7 195.7 43.3C196.2 44.7 198.4 44 198.8 43.7C198.7 43.6 197.9 43.6 197.6 43.2C197.1 42.5 197.9 41.6 198 40.9C198 39.9 196.7 40.4 196.3 40.8Z" fill="#89AD33"/>
<path d="M201.2 41.7C201.3 41.5 201.5 41.4 201.7 41.4C202.4 41.3 203.2 42.4 203.8 42.1C204.4 41.6 205.1 41.1 205.9 40.9C205.8 40.8 205.7 40.6 205.7 40.4C205.3 40.5 204.8 40.5 204.3 40.5C203.9 40.5 203.4 40.6 203 40.4C202.4 40.2 202.2 39.5 202.3 38.9C202.4 38.4 203 37.4 203.6 37.5C203.9 37.6 204.2 38 204.5 38.2C204.6 38.3 204.7 38.4 204.8 38.5C204.7 38.3 204.7 38 204.8 37.8C205 37 205.7 36.6 206.4 36.9C206.5 36.9 206.5 37.1 206.5 37.2C206.4 37.7 206.2 38.4 206.1 39.3C206.1 39.7 206 40.1 206.3 40.8C206.5 40.8 207.4 40.7 207.7 41.1C207.6 41.2 207 41.3 206.6 41.3C206 41.5 205.6 41.5 205.1 41.8C205.4 41.9 205.6 42.1 205.9 42.2C206.2 42.3 206.7 42.8 207.5 42.6C207.9 43.1 206.9 43.7 206.5 43.9C205.9 44.2 205.2 44.2 204.7 43.7C204.4 43.4 204.3 42.9 204.3 42.5C204.2 42.6 204.2 42.6 204.1 42.7C202.9 44.4 204.5 44.9 204.9 46.3C204.9 46.4 204.9 46.5 204.8 46.6C204.2 47.2 203 47.4 202.5 46.6C202.1 45.8 202.8 44 203.3 43.3C202.9 43.7 202.2 43.9 202 43.9C201.1 44 200.5 43.5 200 42.9C200.8 42.6 201 41.8 201.2 41.7Z" fill="#89AD33"/>
<path d="M201.8 42.1C201.4 41.6 200.1 41.2 200 41.1C199.8 41 199.6 40.7 199.5 40.5C199.3 40.1 199.3 39.7 199.1 39.3C198.9 39 198.7 38.7 198.3 38.7C198 38.7 197.6 38.8 197.4 39.1C196.7 40 197.5 41.2 198.5 41.7C197.6 42.1 196.8 42.9 196.8 43.9C196.8 44.7 197.6 45.4 198.4 45.1C198.8 44.9 199 44.5 199 44.2C199 43.9 199 43.5 199 43.2C199.1 42.7 199 42.2 199.3 41.9C200 41.5 201 42.1 201.7 42.4C201.8 42.3 201.8 42.2 201.8 42.1Z" fill="#89AD33"/>
<path d="M168.7 43.4C168.7 43.4 168.4 41.5 170.2 40.4C172 39.2 175.6 39.3 179.7 41.3C183.8 43.3 184.5 46.2 185.1 47.4C185.7 48.6 186 49.4 186 49.4C186 49.4 179.6 48.4 176.8 47.4C172.9 45.8 168.7 43.4 168.7 43.4Z" fill="#FFE366"/>
<path d="M181.5 40.9C179.2 39.1 175.3 38.2 172.7 38.6C170.3 39 170.2 39.3 169 40.7C170.9 39.6 175.1 39.6 177.3 40.3C180 41.1 183.7 43.4 184.2 46.5C184.3 46.7 184.4 46.8 184.5 47C185.3 48.1 186.6 49.4 186.6 49.4L186.9 48.7C186.9 48.6 185.9 44.3 181.5 40.9Z" fill="#FFBA00"/>
<path d="M169 43.6C169 43.6 168.5 43.2 168.1 43C168.2 42.4 168.5 41.2 169 40.7C170.1 39.6 171.5 39 175.1 39.5C180.4 40.3 181.2 41.5 183.2 43.7C185.1 45.9 186.7 49.3 186.7 49.3H185.7C185.7 49.3 182.9 44 181.2 42.5C179.1 40.6 174.5 39.4 171.7 40.1C168.8 40.9 169 43.6 169 43.6Z" fill="#FFD800"/>
<path d="M173 45.3C173 45.3 170.3 44.2 170.1 42.8C169.9 41.4 170.8 40.6 172.2 40.5C173.6 40.4 173.9 41.6 174.2 42.9C174.5 44.2 174.7 46 174.7 46C174.7 46 173.7 45.6 173 45.3Z" fill="#FFD800"/>
<path d="M176.1 46.6C176.1 46.5 174.9 42.8 175.3 41.8C175.7 40.8 177.4 40.5 178.7 41.8C179.9 43 179.2 44.3 178.5 45.2C177.9 46.1 176.1 46.6 176.1 46.6Z" fill="#FFD800"/>
<path d="M177.8 46.9C177.8 46.9 179.5 45.1 180.3 44.2C181.2 43.4 182 44.2 182.6 45.3C183.2 46.4 183.5 47.4 182 47.8C180.7 48.3 177.8 46.9 177.8 46.9Z" fill="#FFD800"/>
<path d="M171.2 42.3C171.1 42.1 171.1 41.8 171 41.5C171 41.4 170.9 41.4 170.9 41.4C170.4 41.8 170.8 43.1 171.4 43C171.5 43 171.5 42.9 171.5 42.8C171.6 42.7 171.4 42.6 171.2 42.3Z" fill="white"/>
<path d="M176.4 42.5C176.4 42.3 176.4 42 176.4 41.8C176.4 41.6 176.2 41.6 176.1 41.7C175.8 42 175.5 43.1 176.2 43.2C176.3 43.2 176.4 43.2 176.4 43.1C176.5 42.9 176.4 42.7 176.4 42.5Z" fill="white"/>
<path d="M181.3 44.5C180.8 44.5 180.1 45.1 180.3 45.7C180.4 45.8 180.5 45.8 180.6 45.8C180.8 45.7 180.8 45.5 180.9 45.4C181 45.2 181.2 45.1 181.4 44.9C181.5 44.7 181.4 44.5 181.3 44.5Z" fill="white"/>
<path d="M179.9 40.7C177.3 39.5 173.2 38.2 170.4 39.8V39.9C171.5 39.8 172.5 39.6 173.4 39.6C175.6 39.7 177.6 40.3 179.9 41C180.2 40.9 180 40.7 179.9 40.7Z" fill="white"/>
<path d="M46.4 156.3C46.4 156.3 50.2 154 54 153.8C57.8 153.6 59.6 156.6 59.6 156.6C59.6 156.6 50.9 156.9 46.4 156.3Z" fill="#C1B09D"/>
<path d="M150.6 93.4C150.6 93.4 147.3 98 148 101.9C148.7 105.9 150.6 109.1 150.6 109.1C150.6 109.1 151.2 107.5 150.6 102.1C150.1 97.9 150.6 93.4 150.6 93.4Z" fill="#C1B09D"/>
<path d="M153.1 94.8C153.1 94.8 154.3 100.8 156.7 103.3C159.1 105.8 162.7 105.8 162.7 105.8C162.7 105.8 157.6 97 153.1 94.8Z" fill="#C1B09D"/>
<path d="M268.4 233.3C268.4 233.2 268.4 233 268.4 232.9C267.7 228.4 264.4 223.3 264.4 223.3L264.2 224.5C256.6 215.3 240 208.8 220.8 208.8C201.6 208.8 185 215.2 177.4 224.4L177.2 223.3C177.2 223.3 173.9 228.4 173.2 232.9C173 233.8 172.9 234.7 172.9 235.7C172.9 250.6 194.3 262.6 220.7 262.6C247.1 262.6 268.5 250.6 268.5 235.7C268.6 234.9 268.5 234.1 268.4 233.3Z" fill="#101111"/>
<path d="M266.6 231.2C266.6 245.4 246.1 257 220.8 257C195.5 257 175 245.5 175 231.2C175 217 195.5 205.4 220.8 205.4C246.1 205.4 266.6 217 266.6 231.2Z" fill="#3E3F3B"/>
<path d="M262.2 230.4C262.2 243.2 243.8 253.5 221.1 253.5C198.4 253.5 180 243.1 180 230.4C180 217.6 198.4 207.3 221.1 207.3C243.8 207.3 262.2 217.7 262.2 230.4Z" fill="#FB6C55"/>
<path d="M242.5 168.3C242.5 167.2 243.1 166 243.9 165.6C244.2 165.4 244.5 165.4 244.8 165.5C244.9 165.5 263.3 176.1 263.3 176.1L261.4 180L243 169.4C242.7 169.2 242.5 168.8 242.5 168.3Z" fill="#101111"/>
<path d="M263.9 177.3C263.9 178.4 263.3 179.6 262.5 180C261.7 180.5 261.1 180 261.1 178.9C261.1 177.8 261.7 176.6 262.5 176.2C263.3 175.8 263.9 176.2 263.9 177.3Z" fill="#272824"/>
<path d="M249.8 180.1C249.8 180.1 256.1 174.9 256.1 174.8C256.3 174.7 256.5 174.7 256.8 174.8C257.4 175.1 257.8 176 257.8 176.8C257.8 177.2 257.7 177.5 257.5 177.6L251.1 182.9L249.8 180.1Z" fill="#D3C6B6"/>
<path d="M240.7 174.6C240.7 174.6 247 169.4 247 169.3C247.2 169.2 247.4 169.2 247.7 169.3C248.3 169.6 248.7 170.5 248.7 171.3C248.7 171.7 248.6 172 248.4 172.1L242 177.4L240.7 174.6Z" fill="#D3C6B6"/>
<path d="M198.7 190.6H257.5V220.4V226.2C257.5 237.6 241.1 246.8 220.9 246.8C200.7 246.8 184.3 237.6 184.3 226.2V190.6H198.7V190.6Z" fill="#F4ECE4"/>
<path d="M220.8 246.8C200.6 246.8 184.2 237.6 184.2 226.2V190.6H198.7C199.7 192.4 200.3 194.2 200.5 195.7C201.7 205 208.7 223.6 232.4 225.7C242.5 226.6 250.8 224.1 257.5 220.5V226.3C257.4 237.6 241 246.8 220.8 246.8Z" fill="#E6DBCC"/>
<path d="M184.2 190.6C184.2 202 200.6 211.2 220.8 211.2C241 211.2 257.4 202 257.4 190.6C257.4 179.2 241 170 220.8 170C200.6 170 184.2 179.3 184.2 190.6Z" fill="#FFF4EE"/>
<path d="M220.8 176.4C203 176.4 188.3 183.7 186 193.2C185.8 192.4 185.7 191.5 185.7 190.7C185.7 180 201.4 171.4 220.8 171.4C240.2 171.4 255.9 180 255.9 190.7C255.9 191.6 255.8 192.4 255.6 193.2C253.3 183.7 238.6 176.4 220.8 176.4Z" fill="#E6DBCC"/>
<path d="M220.8 209.9C203 209.9 188.3 202.6 186 193.1C188.3 183.6 203 176.3 220.8 176.3C238.6 176.3 253.3 183.6 255.6 193.1C253.3 202.6 238.6 209.9 220.8 209.9Z" fill="#FFCC66"/>
<path d="M180.2 210.2L178.9 207.3L186 204.3C186.2 204.2 186.4 204.3 186.6 204.4C187.2 204.7 187.6 205.6 187.6 206.4C187.6 206.8 187.4 207.1 187.2 207.2C187.2 207.2 187.2 207.2 187.1 207.2L180.2 210.2Z" fill="#D3C6B6"/>
<path d="M178.5 208.2C178.5 209 179 209.8 179.5 210.2C180.1 210.5 180.5 210.2 180.5 209.4C180.5 208.6 180 207.8 179.5 207.4C179 207.1 178.5 207.4 178.5 208.2Z" fill="#E6DBCC"/>
<path d="M191.7 216.8L190.4 213.9L197.5 210.9C197.7 210.8 197.9 210.9 198.1 211C198.7 211.3 199.1 212.2 199.1 213C199.1 213.4 198.9 213.7 198.7 213.8C198.7 213.8 198.7 213.8 198.6 213.8L191.7 216.8Z" fill="#D3C6B6"/>
<path d="M190 214.8C190 215.6 190.5 216.4 191 216.8C191.6 217.1 192 216.8 192 216C192 215.2 191.5 214.4 191 214C190.4 213.7 190 214 190 214.8Z" fill="#E6DBCC"/>
<path d="M173.2 207.9C173.2 206.8 173.8 205.6 174.6 205.2C174.9 205 175.2 205 175.5 205.1C175.6 205.1 194 215.7 194 215.7L192.1 219.6L173.7 209C173.4 208.8 173.2 208.4 173.2 207.9Z" fill="#101111"/>
<path d="M194.6 216.9C194.6 218 194 219.2 193.2 219.6C192.4 220.1 191.8 219.6 191.8 218.5C191.8 217.4 192.4 216.2 193.2 215.8C193.9 215.4 194.6 215.8 194.6 216.9Z" fill="#272824"/>
<g opacity="0.5">
<path opacity="0.5" d="M237.2 181.9C225.6 176.6 203.4 180.4 195.5 188.3C190.4 193.4 191.5 199 196.3 201.3C198.7 202.5 203 203.9 206.9 202.9C211.8 201.6 211.4 198.3 214.7 196.2C219.1 193.3 223.1 193.4 227.4 193.2C231.5 193 240 194.8 242.6 190.8C245.3 186.6 240.5 183.4 237.2 181.9Z" fill="#FFE0A9"/>
</g>
<path d="M225.3 184.2C225.3 185.3 223.7 186.3 221.6 186.3C219.6 186.3 217.9 185.4 217.9 184.2C217.9 183.1 219.5 182.1 221.6 182.1C223.7 182.1 225.3 183.1 225.3 184.2Z" fill="white"/>
<path d="M232.7 189.5C232.7 190 232 190.4 231.1 190.4C230.2 190.4 229.5 190 229.5 189.5C229.5 189 230.2 188.6 231.1 188.6C232 188.6 232.7 189 232.7 189.5Z" fill="white"/>
<path d="M213.9 188C213.9 188.4 213.4 188.7 212.7 188.7C212.1 188.7 211.5 188.4 211.5 188C211.5 187.6 212 187.3 212.7 187.3C213.4 187.4 213.9 187.7 213.9 188Z" fill="white"/>
<path d="M203.4 198.4C203.4 198.9 202.7 199.3 201.8 199.3C200.9 199.3 200.2 198.9 200.2 198.4C200.2 197.9 200.9 197.5 201.8 197.5C202.7 197.5 203.4 197.9 203.4 198.4Z" fill="white"/>
<path d="M201.3 192.1C201.3 192.9 200.1 193.6 198.6 193.6C197.1 193.6 195.9 192.9 195.9 192.1C195.9 191.3 197.1 190.6 198.6 190.6C200.1 190.6 201.3 191.3 201.3 192.1Z" fill="white"/>
<path d="M243.4 181.2C248.2 185.7 248.3 187.8 248.2 189.5C248 193.7 244.5 195.8 241 196.7C236.3 197.8 231.3 196.7 226.6 197.4C223.3 197.9 221.7 199.4 218.5 202.9C215.4 206.4 210 208.1 205.6 208.1C212.7 210.1 228 212.4 242.5 205.9C249.8 202.6 253.8 198.7 255.6 193.3C254.8 189.5 251.7 184.7 243.4 181.2Z" fill="#FEBD2E"/>
<path d="M159.4 245.7C159.2 245.5 159 245.4 158.7 245.3C155.2 243.2 149.6 242.7 145.7 244.5C140.7 246.8 137.4 252.7 139.4 259.6C139.5 259.9 139.6 260.2 139.7 260.5C141.7 266 146.9 268.8 151.8 268.7C157.3 268.6 161.7 265.6 163.5 260C165.3 254.3 163.9 248.8 159.4 245.7Z" fill="#FB6C55"/>
<path d="M151.8 268.6C157.3 268.5 161.7 265.5 163.5 259.9C165.3 254.2 163.9 248.7 159.4 245.7C161.4 250.4 160.6 255.9 155.8 259C151.1 262.1 144.3 262.4 139.5 259.5C139.6 259.8 139.7 260.1 139.8 260.4C141.7 266 146.9 268.7 151.8 268.6Z" fill="#ED5343"/>
<path d="M149.2 239.3C149.2 239.3 149 242 150 243.9C151 245.8 154.3 245.2 154.3 245.2C154.3 245.2 154.4 243.3 153.3 241.7C152.2 240.1 149.2 239.3 149.2 239.3Z" fill="#97C941"/>
<path d="M154.1 246.2C152.5 245.9 150.5 245.1 149.5 246.3C148.1 247.9 150.7 249.3 151.9 249.7C153.5 250.2 156.9 250.5 157.6 248.6C158.1 247 155.5 246.4 154.1 246.2Z" fill="#ED5343"/>
<path d="M156.3 240.5C155.9 240.4 155.4 240.5 155.2 240.9C154.5 242.1 153.2 244.6 152.7 246.3C152.5 246.9 152.4 247.4 152.3 247.8C152.6 248.1 152.9 248.2 153.4 248.2C153.5 248.2 153.7 248.2 153.8 248.1C154 246.9 154.5 245.4 155 244.4C155.6 243.4 156.2 242.1 156.6 241.3C156.8 241 156.6 240.6 156.3 240.5Z" fill="#493130"/>
<path d="M154.1 245.2C154.6 246.9 157.4 246.9 158.9 246.3C160.5 245.7 161.5 243.7 162 242.1C158.9 241.7 155.3 243.1 154.1 245.2Z" fill="#97C941"/>
<path d="M147 247.2C144.9 245.7 142.3 247.7 141.3 249.5C140.3 251.4 139.8 254.7 142.4 255.5C144.7 256.2 147.6 253.7 148 251.5C148.2 250.3 148.6 248.4 147 247.2Z" fill="#FF7E71"/>
<path d="M145.5 247.7C144.3 246.8 142.7 248 142.2 249C141.6 250.1 141.3 252.1 142.9 252.5C144.3 252.9 145.9 251.4 146.2 250.1C146.2 249.5 146.4 248.4 145.5 247.7Z" fill="white"/>
<path d="M175.4 248.2C174.6 247 173.5 242.5 171.9 241.2C170.3 240 169.7 241.8 170.2 242.9C170.7 244 173.3 250.1 173.3 250.1L175.4 248.2Z" fill="#101111"/>
<path d="M181.1 250.5C178.8 249.2 176.8 246.8 174.5 247.1C171.3 247.5 169.6 251.6 168.7 254.2C166.3 261.1 166.7 272.2 174.7 275.3C181.2 277.8 190 272.4 191.7 265.9C191.7 265.8 191.8 265.6 191.9 265.5C193.4 258.7 187 253.8 181.1 250.5Z" fill="#FFCC66"/>
<path d="M168.7 254.2C166.3 261.1 166.7 272.2 174.7 275.3C181.2 277.8 190 272.4 191.7 265.9C185.5 270.4 179 270.1 174.6 265.3C170.4 260.7 171.9 252.3 174.5 247.1C171.3 247.5 169.6 251.6 168.7 254.2Z" fill="#FEBD2E"/>
<path opacity="0.5" d="M187.3 257C185.5 254.2 179.9 253.6 177.8 256.1C174.2 260.5 181.2 265.1 185.3 264.1C187.5 263.7 189.6 260.5 187.3 257Z" fill="#FFEE8D"/>
<path d="M185.2 256.3C184.7 255.5 183 255.3 182.4 256C181.3 257.3 183.4 258.7 184.6 258.4C185.3 258.3 185.9 257.3 185.2 256.3Z" fill="white"/>
<path d="M202.2 269.9C201 268.2 199.3 266.8 197.2 265.9C192.9 264.2 187.3 264 183.8 267.5C182.5 268.8 180.7 271.8 180.5 275.3C180.5 276.2 180.5 277.1 180.7 278.1C182.4 286.8 194.2 289.6 200.3 284.7C205.2 280.9 205.4 274.4 202.2 269.9Z" fill="#FF781D"/>
<path d="M202.2 269.9C202.9 273.9 200.9 278.4 197.5 281.1C192 285.5 183.1 282.6 180.7 276.1C180.6 275.9 180.6 275.6 180.5 275.4C180.5 276.3 180.5 277.2 180.7 278.2C182.4 286.9 194.2 289.7 200.3 284.8C205.2 280.9 205.4 274.4 202.2 269.9Z" fill="#F96500"/>
<path opacity="0.5" d="M194 271.7C188.6 270.4 188.1 269.5 186.6 267.9C185.5 266.8 183.4 268.7 182.7 271.1C181.6 274.9 184.8 278.5 188.4 279.5C191.6 280.4 197 279.1 197.5 275.2C197.8 273.2 195.8 272.1 194 271.7Z" fill="#FF9248"/>
<path d="M196 267.6C195.9 268 195.1 268.1 194.1 267.9C193.1 267.7 192.4 267.3 192.5 266.9C192.6 266.5 193.4 266.4 194.4 266.6C195.3 266.7 196.1 267.2 196 267.6Z" fill="#493130"/>
<path d="M186.4 272.5C185.8 272.3 185.6 271.9 185.1 271.7C185.1 271.7 185 271.7 185 271.8C184.6 272.7 185.6 273.6 186.4 273.4C186.9 273.2 186.8 272.6 186.4 272.5Z" fill="white"/>
<path d="M189.4 271.7C189.3 271.6 189.2 271.6 189.2 271.7C189 272.1 188.7 272.4 188.5 272.8C188.4 273 188.7 273.2 188.9 273.2C189.6 273.1 189.8 272.3 189.4 271.7Z" fill="white"/>
<path d="M188.3 274.2C187.8 274.2 187.3 274.4 186.8 274.4C186.7 274.4 186.7 274.5 186.7 274.5C186.8 275.4 188.2 275.6 188.6 274.8C188.8 274.6 188.7 274.2 188.3 274.2Z" fill="white"/>
<path d="M186 270.9C186.5 271 187 271 187.5 271.3C187.6 271.3 187.6 271.3 187.6 271.2C187.8 270.3 186.6 269.6 185.9 270.2C185.7 270.4 185.7 270.8 186 270.9Z" fill="white"/>
<path d="M226.3 291.6C234 293 242.7 289.4 249.8 286.7C257.5 283.7 264.8 279.9 271.6 275.3C276.8 271.8 282.2 267.9 282.6 261.1C282.8 257 280.7 253.3 277.6 250.8C278.2 252.2 278.8 253.7 279.2 255.2C280.2 259.6 278 263.4 275.1 266.6C270.4 271.8 264 275.2 257.7 278.1C250.9 281.3 243.8 284.5 236.4 286.2C230.7 287.5 221.9 288.2 217.1 283.9C218.1 287.9 221.9 290.8 226.3 291.6Z" fill="#B7300B"/>
<path d="M279.1 255C278.8 253.5 278.2 252.1 277.5 250.6C275.3 248.8 272.7 247.6 269.9 247.2C267.4 246.8 264.9 246.7 262.4 246.7C265.8 248.1 269.1 250.5 270.6 252.8C272.3 255.3 271.1 256.3 268.4 255.3C266 254.4 263.7 253.2 261.4 252.1C259.8 251.4 258.2 250.6 256.6 250C255.8 249.7 253.3 248.7 252.7 247.9C249.4 248.7 246.3 249.9 243.5 251.2C248.6 251.2 255.1 255.1 257.4 258.7C259.1 261.2 257.9 262.2 255.2 261.2C252.8 260.3 250.5 259.1 248.2 258C246.6 257.3 245 256.5 243.4 255.9C242.6 255.6 239.1 254.6 238.4 253.9C233.3 257 229.4 260.4 227.5 262.6C221.8 269.1 217.2 273.3 216.5 280C216.4 281.2 216.5 282.4 216.8 283.5C221.6 287.8 230.4 287.2 236.1 285.8C243.5 284.1 250.6 280.9 257.4 277.7C263.7 274.7 270.1 271.4 274.8 266.2C277.9 263.3 280.1 259.4 279.1 255Z" fill="#DB4C26"/>
<path d="M217.5 276.4C217.7 277.8 218.3 279 219.5 279.9C222.2 281.9 226 279.4 228.1 277.6C232.2 274.3 235.1 269.7 238.8 266C243 261.8 247.7 258.1 253.1 255.6C256 254.3 259.1 253.3 262.3 252.8C264.6 252.4 267.6 252.9 269.7 251.6C271.4 250.6 271.9 248.9 271.3 247.4C261.9 245.4 250.5 247.6 242.1 252.1C226.9 260.4 217.3 275.2 217.5 276.4Z" fill="#EF5537"/>
<path d="M256.7 250.2C258.3 250.8 259.9 251.5 261.5 252.3C263.8 253.4 266.1 254.6 268.5 255.5C271.2 256.5 272.3 255.5 270.7 253C269.2 250.7 265.9 248.3 262.5 246.9C259.1 247 255.9 247.5 252.8 248.3C253.4 248.9 255.9 249.9 256.7 250.2Z" fill="#B7300B"/>
<path d="M248.4 258.2C250.7 259.3 253 260.5 255.4 261.4C258.1 262.4 259.2 261.4 257.6 258.9C255.3 255.3 248.7 251.5 243.7 251.4C241.9 252.3 240.2 253.2 238.6 254.1C239.4 254.8 242.9 255.8 243.6 256.1C245.2 256.8 246.8 257.5 248.4 258.2Z" fill="#B7300B"/>
<path d="M237.6 277.5C234.3 272.4 222.5 266.9 219.6 272.3C219.2 273 222.6 274.4 223.6 274.8C225.2 275.4 226.8 276.1 228.4 276.9C230.7 278 233 279.2 235.4 280.1C238.1 281 239.3 280 237.6 277.5Z" fill="#B7300B"/>
<path d="M247 267.8C243.7 262.7 231.7 257 227.8 262.7C227.4 263.3 232.1 264.7 233 265.1C234.6 265.7 236.2 266.4 237.8 267.2C240.1 268.3 242.4 269.5 244.8 270.4C247.5 271.4 248.6 270.4 247 267.8Z" fill="#B7300B"/>
<path d="M265.6 289.9C264.1 290.2 261.8 288.9 260.4 288.8C259.7 287.7 258.3 286.3 256.4 286.7C254.2 287.2 253.4 291.4 253.2 292.6C251.2 292.7 243.4 292.2 242.9 293.6C242.1 295.8 244.7 297.1 246.6 297.5C246.8 298.3 247.7 299 249.7 299.2C250.8 300.5 251.5 301.1 252.6 301.2C256.2 301.2 257.5 297 257.6 294.2C259.6 295.2 265.3 295 266.4 293.1C267.3 291.8 267.8 290.6 265.6 289.9Z" fill="#FEBD2E"/>
<path d="M263.5 289.3C263.1 288.1 261.8 287.6 260.4 287.5C259.7 286.4 258.3 285 256.4 285.4C254.2 285.9 253.4 290.1 253.2 291.3C251.2 291.4 243.8 291.9 243 293.1C242.3 294.2 244.7 295 246.6 295.4C246.8 296.2 247.7 296.9 249.7 297.2C250.8 298.5 251.6 299.3 252.6 299.2C256.1 298.7 257.2 294.8 257.4 293.7C259.3 293.6 266 292.9 266.9 290.9C267.2 290.3 265.6 289.9 263.5 289.3Z" fill="#FFCC66"/>
<path d="M255.3 292.5C255.3 292.5 249.5 292.8 249.7 294.4C249.8 295.6 252.5 296.4 253.8 295.3C255 294.2 255.3 292.5 255.3 292.5Z" fill="#FEBD2E"/>
<path d="M255.3 292.5C255.3 292.5 255.8 289.1 258.6 289.2C260.6 289.3 262.1 290.8 260.2 291.5C258.1 292.4 255.3 292.5 255.3 292.5Z" fill="#FEBD2E"/>
<path d="M263.5 298C265 298.3 267.3 297 268.7 296.9C269.4 295.8 270.8 294.4 272.7 294.8C274.9 295.3 275.7 299.5 275.9 300.7C277.9 300.8 285.7 300.3 286.2 301.7C287 303.9 284.4 305.2 282.5 305.6C282.3 306.4 281.4 307.1 279.4 307.3C278.3 308.6 277.6 309.2 276.5 309.3C272.9 309.3 271.6 305.1 271.5 302.3C269.5 303.3 263.8 303.1 262.7 301.2C261.9 299.9 261.4 298.7 263.5 298Z" fill="#FEBD2E"/>
<path d="M265.7 297.4C266.1 296.2 267.4 295.7 268.8 295.6C269.5 294.5 270.9 293.1 272.8 293.5C275 294 275.8 298.2 276 299.4C278 299.5 285.4 300 286.2 301.2C286.9 302.3 284.5 303.1 282.6 303.5C282.4 304.3 281.5 305 279.5 305.3C278.4 306.6 277.6 307.4 276.6 307.3C273.1 306.8 272 302.9 271.8 301.8C269.9 301.7 263.2 301 262.3 299C262 298.4 263.5 298 265.7 297.4Z" fill="#FFCC66"/>
<path d="M273.9 300.6C273.9 300.6 279.7 300.9 279.5 302.5C279.4 303.7 276.7 304.5 275.4 303.4C274.1 302.2 273.9 300.6 273.9 300.6Z" fill="#FEBD2E"/>
<path d="M273.9 300.6C273.9 300.6 273.4 297.2 270.6 297.3C268.6 297.4 267.1 298.9 269 299.6C271 300.4 273.9 300.6 273.9 300.6Z" fill="#FEBD2E"/>
<path d="M306.8 279.5C305.5 278.5 304.3 277.4 302.9 276.5C301.8 275.7 300.6 275 299.4 274.5C298.7 274.1 298 273.8 297.3 273.5C294.5 272.4 291.7 271.3 288.8 271.9C285.5 272.7 282.1 275.1 279 276.4C277.1 277.2 274 277.8 275.5 280.5C276.8 282.9 279.4 284 282 284.5C285.4 285.1 288.8 285.6 292.1 286.1C295.2 286.6 298.5 286.9 301.5 285.9C302.8 285.5 303.9 284.8 305.1 284.1C306 283.6 307.5 282.9 307.9 281.9C308.4 280.9 307.5 280.2 306.8 279.5ZM293.4 274C294.6 274.5 296.7 275.4 297.9 276C300.1 277 301.8 278.2 303.8 279.4C307 281.4 301.1 283.6 299.5 283.9C296.9 284.4 294.2 284 291.7 283.5C289.2 283 286.7 282.6 284.2 282.2C283.1 282 281.7 281.9 280.7 281.2C278.6 279.9 280.8 278.5 281.8 277.7C285.3 275.2 289.4 272.4 293.4 274Z" fill="#FFCC66"/>
<path d="M304.5 271.9C302.8 266.5 296.2 266.6 291.6 266.9C288.2 267.1 284.7 266.5 281.3 267C280.2 267.2 278.3 267.4 277.6 268.5C277.3 269 277.3 269.5 277.5 269.9C277.5 270 277.6 270.1 277.7 270.1C277.8 270.2 277.8 270.2 277.9 270.3C278.1 270.5 278.4 270.3 278.5 270.1C282.9 269.7 287.4 269.4 291.8 269.5C294 269.5 296.3 269.4 298.4 270.1C299.6 270.5 300.8 271.2 301.5 272.4C302.2 273.8 301.7 275.3 300.7 276.4C297.8 279.9 293 281 288.7 280.8C286.4 280.7 283.7 280.4 281.5 279.4C280.4 278.9 279.5 278.1 279 277C278.4 275.6 279.1 274.8 279.3 273.5C279.5 272.5 279 271.1 277.7 271.3C277 271.4 276.7 272 276.8 272.6C275.7 274 275.5 275.9 276.1 277.5C276.9 279.6 278.8 281 280.7 281.8C285.5 283.9 291.2 283.5 296.1 281.6C299.9 280.2 306.1 277 304.5 271.9Z" fill="#FEBD2E"/>
<path d="M282.6 271.8C284.3 266.4 290.9 266.5 295.5 266.8C298.9 267 302.4 266.4 305.8 266.9C306.9 267.1 308.8 267.3 309.5 268.4C309.8 268.9 308.7 270.2 308.7 270C304.3 269.6 299.8 269.3 295.4 269.4C293.2 269.4 290.9 269.3 288.8 270C287.6 270.4 286.4 271.1 285.7 272.3C285 273.7 285.5 275.2 286.5 276.3C289.4 279.8 294.2 280.9 298.5 280.7C300.8 280.6 303.5 280.3 305.7 279.3C306.8 278.8 307.7 278 308.2 276.9C308.8 275.5 308.1 274.7 307.9 273.4C307.7 272.4 308.2 271 309.5 271.2C310.2 271.3 311.7 275.7 311.1 277.4C310.3 279.5 308.4 280.9 306.5 281.7C301.7 283.8 296 283.4 291.1 281.5C287.1 280.1 281 276.9 282.6 271.8Z" fill="#FEBD2E"/>
<path d="M306.3 262.9C302.1 261.6 297.7 264.1 293.9 265.6C289.8 263 285.1 261.4 280.2 263C277.5 263.9 274.8 266.2 274.7 269.3C274.6 272.6 277.6 274.7 280.4 275.6C284.2 276.8 288.5 277.3 292.5 277.4C296.5 277.5 300.7 277.1 304.5 275.6C307.4 274.5 310 272.3 310.5 269.1C310.9 266.2 309.1 263.8 306.3 262.9ZM296.5 267.5C297.6 267.1 298.6 266.7 299.7 266.4C301.8 265.8 307.5 264.2 307.5 268C307.5 270.3 305.4 272 303.2 273C302.1 272.4 297.7 268.5 296.5 267.5ZM280 271.1C279.5 270.4 279.3 269.5 279.5 268.5C279.9 266.6 281.7 265.5 283.5 265.2C286 264.7 288.3 265.6 290.5 266.9C287 268.3 283.5 269.7 280 271.1ZM283.7 272.9C286.4 272.2 288.9 270.9 291.4 269.8C292.1 269.5 292.7 269.2 293.4 268.9C295.8 270.6 298.1 272.4 300.4 274.2C297.2 275.1 293.8 275.1 290.5 274.7C289 274.5 287.5 274.2 286 273.8C285.1 273.6 284.1 273.4 283.1 273.1C283.3 273 283.5 273 283.7 272.9Z" fill="#FFCC66"/>
<path d="M295.6 288.7C295.2 287.3 290.9 286.9 290.4 287.8C289.6 289.2 291.6 290.4 292.9 290.7C294.3 290.9 296.1 290.1 295.6 288.7Z" fill="#F9CAA0"/>
<path d="M291.7 289.2C290.3 288.8 287.7 292.3 288.2 293.2C289 294.5 291 293.5 292 292.5C293 291.5 293.1 289.6 291.7 289.2Z" fill="#FBD5AF"/>
<path d="M298.4 292.8C297.7 291.5 293.4 291.9 293.1 292.8C292.6 294.3 294.7 295.1 296.1 295.2C297.5 295.2 299 294.1 298.4 292.8Z" fill="#F9CAA0"/>
<path d="M302.1 288.1C301.7 286.7 297.4 286.3 296.9 287.2C296.1 288.6 298.1 289.8 299.4 290.1C300.8 290.4 302.5 289.5 302.1 288.1Z" fill="#FBD5AF"/>
<path d="M292.5 291.6C293.9 291.2 296.5 294.7 296 295.6C295.2 296.9 293.2 295.9 292.2 294.9C291.2 293.9 291.1 291.9 292.5 291.6Z" fill="#FFE4CC"/>
<path d="M294.6 289.3C295.1 287.9 299.5 287.9 299.9 288.8C300.5 290.2 298.5 291.3 297.1 291.5C295.7 291.7 294.1 290.6 294.6 289.3Z" fill="#FFE4CC"/>
<path d="M292.2 295.8C291.8 294.4 287.5 294 287 294.9C286.2 296.3 288.2 297.5 289.5 297.8C290.9 298.1 292.6 297.2 292.2 295.8Z" fill="#FBD5AF"/>
<path d="M289.1 298.1C289.6 296.7 294 296.7 294.4 297.6C295 299 293 300.1 291.6 300.3C290.2 300.5 288.6 299.5 289.1 298.1Z" fill="#FFE4CC"/>
<path d="M300 300.7C300.5 302.1 304.8 302.3 305.3 301.4C306 300 304 298.9 302.6 298.6C301.2 298.4 299.6 299.3 300 300.7Z" fill="#F9CAA0"/>
<path d="M303.9 299.9C305.3 300.2 307.7 296.6 307.2 295.8C306.4 294.5 304.4 295.6 303.4 296.7C302.6 297.7 302.5 299.6 303.9 299.9Z" fill="#FBD5AF"/>
<path d="M297.1 296.8C297.8 298.1 302.1 297.5 302.4 296.5C302.8 295 300.7 294.3 299.3 294.3C297.9 294.3 296.4 295.5 297.1 296.8Z" fill="#F9CAA0"/>
<path d="M293.7 301.6C294.2 303 298.5 303.2 299 302.3C299.7 300.9 297.7 299.8 296.3 299.5C294.9 299.2 293.2 300.2 293.7 301.6Z" fill="#FBD5AF"/>
<path d="M303 297.7C301.6 298.2 298.8 294.8 299.3 293.9C300 292.5 302.1 293.4 303.1 294.4C304.2 295.3 304.4 297.2 303 297.7Z" fill="#FFE4CC"/>
<path d="M299.9 299.1C299.4 300.5 295.1 300.7 294.7 299.8C294 298.4 296 297.3 297.3 297C298.7 296.8 300.3 297.8 299.9 299.1Z" fill="#FFE4CC"/>
<path d="M303.1 293.4C303.6 294.8 307.9 295 308.4 294.1C309.1 292.7 307.1 291.6 305.7 291.3C304.3 291 302.6 292 303.1 293.4Z" fill="#FBD5AF"/>
<path d="M306.1 290.9C305.6 292.3 301.3 292.5 300.9 291.6C300.2 290.2 302.2 289.1 303.5 288.8C304.9 288.6 306.6 289.5 306.1 290.9Z" fill="#FFE4CC"/>
<path d="M174.7 275.5C174.6 275.3 174.5 275.2 174.3 275C172.5 273 169.7 273.1 167.3 273.3C163.6 273.6 159.9 274 156.2 273.7C152.9 273.5 149.8 272.9 146.9 272C143.7 270.5 140.6 268.8 137.6 266.9C133 263.9 126.8 256.1 119.7 258C115.9 257.2 114.6 256.5 110.8 254.8C109.8 254.6 109.1 255.1 108.9 255.8C108.7 256.3 108.7 257 109 257.5C110.3 258.6 116.1 261.2 117.5 261.3C115.7 265.8 118.7 270.5 122.3 274.3C130.2 282.8 143.4 289 154.9 289.2C160.3 289.3 166.3 287.8 170.7 284.7C173.3 282.8 177 278.8 174.7 275.5Z" fill="#FFCC66"/>
<path d="M108.9 257.5C110.2 258.6 116 261.2 117.4 261.3C115.6 265.8 118.6 270.5 122.2 274.3C130.1 282.8 143.3 289 154.8 289.2C160.2 289.3 166.2 287.8 170.6 284.7C173.3 282.8 176.9 278.8 174.6 275.5C173.1 275.4 172 276.1 170.4 277.5C167.9 279.8 164.9 281.9 161.4 283.2C157.2 284.7 150.5 283.7 146.3 282.7C142.3 281.7 138.5 280.3 134.9 278.4C131.5 276.6 128 274.6 125.2 271.9C121.8 268.7 119.6 263 119.8 260.1C117.8 259.7 115.1 258.8 113.2 258.1C111.9 257.6 110 256.7 108.8 255.8C108.6 256.3 108.6 257 108.9 257.5Z" fill="#FEBD2E"/>
<path d="M166 292.3C165.9 292.1 165.9 291.9 165.8 291.7C164.6 289.3 161.8 288.7 159.4 288.3C155.7 287.7 152.1 287.1 148.5 286C145.3 285 142.5 283.7 139.9 282C137.2 279.8 134.6 277.3 132.2 274.8C128.5 270.8 124.4 261.6 117.1 261.8C113.6 260.1 112.5 259.1 109.2 256.5C108.3 256 107.5 256.3 107.1 257C106.8 257.5 106.6 258.1 106.8 258.7C107.8 260.1 112.8 264 114.1 264.5C111.2 268.4 113 273.7 115.5 278.3C121 288.5 132.3 297.8 143.5 300.8C148.7 302.2 154.9 302.3 160 300.3C162.9 299.1 167.5 296.1 166 292.3Z" fill="#FFCC66"/>
<path d="M106.8 258.7C107.8 260.1 112.8 264 114.1 264.5C111.2 268.4 113 273.7 115.5 278.3C121 288.5 132.3 297.8 143.5 300.8C148.7 302.2 154.9 302.3 160 300.3C163 299.1 167.6 296.2 166.1 292.4C164.7 292 163.4 292.3 161.6 293.3C158.6 294.9 155.2 296.2 151.4 296.6C146.9 297 140.7 294.4 136.9 292.4C133.3 290.5 129.9 288.1 126.9 285.4C124 282.9 121.2 280 119.1 276.7C116.6 272.8 115.9 266.7 116.7 264C114.8 263.1 112.5 261.6 110.8 260.4C109.7 259.6 108 258.3 107.1 257C106.8 257.5 106.6 258.1 106.8 258.7Z" fill="#FEBD2E"/>
<path d="M110.9 253C109.2 254.4 105.6 257.6 104.5 258.8C103.3 260 105.6 264.1 108.3 262.7C110.3 261.7 113.1 258 114.4 256.2C114.9 255.5 115.6 254.5 115 253.8C113.9 252.4 112.7 251.5 110.9 253Z" fill="#272824"/>
<path d="M104.5 258.8C103.3 259.8 104.2 261.2 105.3 262.2C106.3 263 107.3 263.5 108.3 262.7C109.3 261.8 108.6 260.7 107.7 259.7C106.8 258.7 105.7 257.8 104.5 258.8Z" fill="#272824"/>
<path d="M122.9 265.2C121.6 264.2 120.3 263.6 119.1 264.6C118.6 265 118.7 265.7 119.8 267.1C121.2 268.9 122.2 269.6 124.1 272.4C125 273.7 126.2 276.1 127.8 276.5C129 276.8 129.6 276 129.6 274.9C129.6 273 125.2 267.1 122.9 265.2Z" fill="#FFE0A9"/>
<path d="M126.8 260.1C125.4 259.4 124.1 259 123.2 260.2C122.8 260.7 123 261.3 124.3 262.4C125.9 263.8 127 264.3 129.2 266.5C130.2 267.5 131.8 269.5 133.4 269.6C134.5 269.6 134.9 268.8 134.8 267.8C134.5 266.2 129.4 261.4 126.8 260.1Z" fill="#FFE0A9"/>
<path d="M171.9 273.9C170.3 274.5 170.5 276.3 171.9 277.3C173.3 278.3 174.9 277.9 175 276C175.1 274.1 173.6 273.3 171.9 273.9Z" fill="#272824"/>
<path d="M162.6 290C160.9 290.3 160.8 292.1 162 293.4C163.2 294.6 164.8 294.5 165.3 292.6C165.7 290.7 164.3 289.7 162.6 290Z" fill="#272824"/>
<path d="M132 265.3C131.5 264.3 130.5 263.6 129.7 262.9C128.8 262.2 127.9 261.6 126.9 261C125.4 260.2 125 261.3 126.3 262.2C127.1 262.8 127.9 263.4 128.6 264.1C129.3 264.8 130 265.6 130.8 266.2C132.1 266.9 132.6 266.4 132 265.3Z" fill="white"/>
<path d="M126.5 270.7C126.2 269.7 125.4 268.7 124.8 267.8C124.1 266.9 123.4 266.1 122.5 265.3C121.3 264.2 120.6 265.1 121.7 266.3C122.4 267 123 267.8 123.6 268.6C124.2 269.4 124.6 270.4 125.3 271.1C126.2 272.3 126.8 271.9 126.5 270.7Z" fill="white"/>
</g>
<defs>
<clipPath id="clip0_53_2169">
<rect width="311.1" height="309.3" fill="white"/>
</clipPath>
</defs>
</svg>
